<svg width="100" height="100" viewBox="0 0 100 100" fill="none" xmlns="http://www.w3.org/2000/svg">
<path d="M49.7255 0C49.858 0 49.9906 0 50.1232 0C50.4771 0.11665 50.7011 0.220045 50.7952 0.310184C51.3546 0.849691 51.8139 1.46542 52.1732 2.15737C52.9725 3.70033 53.0447 5.28306 52.3899 6.90556C52.1897 7.4 51.9524 7.87323 51.6781 8.32525C51.3228 8.9138 50.9815 9.30816 50.6541 9.50832C50.1861 9.79465 49.7083 9.78603 49.2204 9.48247C48.9235 9.29822 48.6239 8.97611 48.3217 8.51613C46.6952 6.03997 46.7655 3.50349 48.5325 0.906691C48.8533 0.434787 49.2509 0.132557 49.7255 0ZM49.9843 5.82191C50.0062 5.82195 50.028 5.797 50.0483 5.74847C50.0687 5.69994 50.0872 5.6288 50.1029 5.53909C50.1185 5.44938 50.131 5.34288 50.1396 5.22565C50.1482 5.10842 50.1528 4.98277 50.153 4.85587C50.1534 4.59958 50.1363 4.35376 50.1053 4.17248C50.0743 3.9912 50.032 3.88931 49.9877 3.88923C49.9657 3.88919 49.944 3.91414 49.9236 3.96267C49.9033 4.01119 49.8847 4.08234 49.8691 4.17205C49.8534 4.26175 49.8409 4.36826 49.8323 4.48549C49.8237 4.60271 49.8192 4.72837 49.8189 4.85527C49.8185 5.11156 49.8357 5.35738 49.8667 5.53866C49.8977 5.71994 49.94 5.82183 49.9843 5.82191Z" fill="#D3A76E"/>
<path d="M73.039 27.1132C75.8107 26.6785 78.1557 27.3996 80.0738 29.2766C80.4197 29.6159 80.596 29.9387 80.6027 30.2449C80.6093 30.6439 80.4164 31.0137 80.0241 31.3544C77.0694 33.9154 73.8018 34.2395 70.2215 32.3267C70.1982 32.3145 70.1726 32.3074 70.1464 32.3057C70.1202 32.3041 70.094 32.308 70.0695 32.3172C70.0451 32.3264 70.0229 32.3407 70.0046 32.3592C69.9862 32.3776 69.972 32.3998 69.963 32.4241C69.3439 34.093 69.6051 35.5764 70.7464 36.8741C70.9691 37.1273 71.0844 37.4222 71.0924 37.7589C71.1401 39.6293 71.6179 41.3698 72.526 42.9803C73.1888 44.1588 74.0285 45.1735 75.0452 46.0245C76.6372 47.3567 78.5129 48.1786 80.6723 48.4901C80.698 48.494 80.7244 48.4875 80.7456 48.4718C80.7668 48.4562 80.7811 48.4328 80.7856 48.4066C81.5054 44.2867 83.8072 41.4897 87.6912 40.0157C88.623 39.6618 89.6046 39.4874 90.6359 39.4928C91.1714 39.4954 91.5744 39.5935 91.8448 39.787C92.1086 39.9766 92.2889 40.2344 92.3857 40.5605C92.4493 40.7752 92.4652 41.0768 92.4334 41.4652C92.1285 45.0986 90.396 47.8949 87.2358 49.8541C87.2199 49.8643 87.2068 49.8783 87.1978 49.8949C87.1889 49.9116 87.1842 49.9302 87.1844 49.9491C87.1846 49.968 87.1896 49.9865 87.199 50.0029C87.2083 50.0194 87.2217 50.0331 87.2378 50.043C90.4815 52.0114 92.2233 54.8992 92.4632 58.7062C92.5361 59.8595 91.9728 60.4394 90.7731 60.4461C89.9168 60.4514 88.8623 60.2267 87.6096 59.772C83.7761 58.3788 81.5167 55.6561 80.8313 51.6038C80.8245 51.5609 80.8011 51.5223 80.7662 51.4963C80.7312 51.4703 80.6876 51.4589 80.6444 51.4646C78.0914 51.7894 75.9718 52.8333 74.2857 54.5963C72.3662 56.6032 71.3296 58.98 71.1759 61.7266C71.1414 62.3483 70.9412 62.8752 70.5754 63.3073C70.362 63.5592 70.2539 63.6871 70.2513 63.6911C69.3791 64.896 69.2598 66.2547 69.8934 67.7672C69.8985 67.7792 69.906 67.7901 69.9155 67.7991C69.925 67.8082 69.9363 67.8151 69.9486 67.8196C69.9609 67.8241 69.974 67.826 69.9871 67.8252C70.0002 67.8244 70.0129 67.8209 70.0246 67.8149C73.2802 66.0612 76.3522 66.1712 79.2406 68.145C79.8106 68.5347 80.1738 68.9012 80.3303 69.2445C80.5941 69.8278 80.4217 70.4004 79.8133 70.9625C77.8753 72.7547 75.5768 73.4241 72.9177 72.9707C72.9062 72.9686 72.8945 72.9693 72.8833 72.9727C72.8722 72.9761 72.8621 72.9822 72.8539 72.9905C72.8457 72.9987 72.8396 73.0088 72.8361 73.0199C72.8327 73.031 72.832 73.0428 72.8342 73.0542C73.3074 75.7624 72.6068 78.1013 70.7325 80.0711C70.2314 80.5974 69.7058 80.7266 69.1557 80.4589C68.8694 80.321 68.6288 80.1275 68.4339 79.8783C65.9538 76.7022 65.6993 73.4466 67.6704 70.1115C67.6763 70.1011 67.6798 70.0896 67.6806 70.0777C67.6814 70.0658 67.6796 70.0539 67.6752 70.0428C67.6708 70.0318 67.664 70.0218 67.6552 70.0137C67.6465 70.0057 67.636 69.9996 67.6247 69.9961C65.9465 69.446 64.3797 69.7052 62.9242 70.7736C62.6153 70.9989 62.2389 71.1255 61.7948 71.1534C58.4027 71.3628 55.672 72.7354 53.6028 75.2712C52.3687 76.7851 51.6429 78.5832 51.4255 80.6657C51.4229 80.6931 51.4304 80.7205 51.4466 80.7426C51.4628 80.7646 51.4864 80.7797 51.513 80.785C56.7503 81.8799 59.7296 85.1415 60.4507 90.5697C60.5448 91.2788 60.3798 91.8044 59.9556 92.1464C59.6799 92.3705 59.2543 92.4725 58.679 92.4526C54.9131 92.3227 52.0512 90.6194 50.0933 87.3426C50.0809 87.3218 50.0633 87.3046 50.0423 87.2927C50.0212 87.2808 49.9973 87.2746 49.973 87.2746C49.9486 87.2746 49.9246 87.2808 49.9032 87.2927C49.8818 87.3046 49.8637 87.3218 49.8507 87.3426C48.0652 90.2827 45.5155 91.9642 42.2015 92.387C41.4155 92.4864 40.9237 92.5222 40.7262 92.4944C40.3099 92.4361 39.9858 92.2253 39.7539 91.8621C39.5908 91.6063 39.5146 91.2576 39.5252 90.8162C39.6074 87.6256 40.8912 85.0182 43.3767 82.994C44.8202 81.8169 46.497 81.0905 48.4072 80.8148C48.4343 80.8108 48.4587 80.7964 48.4752 80.7748C48.4916 80.7531 48.4986 80.7261 48.4947 80.6995C48.1182 77.929 46.9086 75.6437 44.8659 73.8436C42.8975 72.1084 40.6029 71.2051 37.9822 71.1335C37.5514 71.1215 37.1929 70.983 36.9065 70.7179C35.5226 69.4427 33.9704 69.161 32.2498 69.8729C32.2285 69.8819 32.2092 69.8954 32.1934 69.9124C32.1776 69.9293 32.1656 69.9495 32.1581 69.9714C32.1506 69.9934 32.1478 70.0167 32.1499 70.0398C32.152 70.0629 32.1589 70.0853 32.1703 70.1055C34.0658 73.4247 33.9233 76.4735 31.7428 79.2519C31.3173 79.7928 31.0131 80.1228 30.8301 80.2421C30.512 80.4476 30.16 80.4867 29.7743 80.3595C29.5118 80.2733 29.2454 80.0778 28.975 79.7729C27.2544 77.8402 26.5764 75.5556 26.9409 72.919C26.9429 72.9052 26.9417 72.8912 26.9373 72.878C26.9329 72.8648 26.9255 72.8527 26.9156 72.8429C26.9058 72.833 26.8938 72.8256 26.8805 72.8212C26.8673 72.8169 26.8533 72.8156 26.8395 72.8176C24.7212 73.1238 22.8078 72.7368 21.0991 71.6564C20.3846 71.2044 19.9193 70.8412 19.7033 70.5668C19.352 70.1201 19.3076 69.6263 19.5701 69.0855C19.7318 68.7541 20.0386 68.4207 20.4907 68.0853C23.3884 65.9379 26.4683 65.806 29.7306 67.6896C29.7415 67.6962 29.7537 67.7004 29.7664 67.7019C29.779 67.7034 29.7918 67.7022 29.8039 67.6985C29.8159 67.6947 29.827 67.6884 29.8363 67.68C29.8456 67.6717 29.8529 67.6614 29.8578 67.6499C30.62 65.92 30.3748 64.3512 29.1221 62.9434C28.9127 62.7088 28.8007 62.3787 28.7861 61.9532C28.7795 61.7398 28.7761 61.6291 28.7761 61.6212C28.6197 59.4128 27.9563 57.5006 26.7858 55.8848C24.9605 53.3649 22.4518 51.8802 19.2599 51.4308C19.2262 51.4261 19.192 51.4345 19.1646 51.4541C19.1371 51.4738 19.1185 51.5032 19.1127 51.5362C18.377 55.6071 16.1209 58.349 12.3444 59.7621C11.3966 60.1173 10.4521 60.334 9.51096 60.4123C8.87866 60.4653 8.39416 60.3804 8.05747 60.1577C7.56966 59.8356 7.35425 59.3187 7.41125 58.6068C7.71216 54.8316 9.45065 51.9856 12.6267 50.0688C12.6455 50.0578 12.6611 50.0421 12.672 50.0232C12.6829 50.0044 12.6888 49.9829 12.689 49.961C12.6892 49.939 12.6837 49.9173 12.6732 49.8979C12.6626 49.8785 12.6473 49.862 12.6287 49.8501C9.47517 47.8485 7.74 44.9972 7.42318 41.2962C7.33702 40.2835 7.68631 39.6889 8.47105 39.5126C8.84751 39.4265 9.43209 39.4596 10.2248 39.6121C15.018 40.5386 17.9906 43.4582 19.1426 48.3708C19.152 48.4099 19.1754 48.4442 19.2083 48.4672C19.2413 48.4903 19.2815 48.5005 19.3215 48.496C21.0554 48.3025 22.6136 47.7279 23.9961 46.7721C25.0486 46.0457 25.9646 45.0999 26.744 43.9347C27.888 42.2287 28.5694 40.3192 28.7881 38.2063C28.8371 37.7278 28.9286 37.3586 29.0625 37.0988C29.1818 36.8668 29.3236 36.6481 29.488 36.4426C29.7465 36.1178 29.9009 35.9117 29.9513 35.8242C30.6035 34.6962 30.6306 33.4753 30.0328 32.1617C30.0264 32.148 30.0173 32.1358 30.006 32.1258C29.9948 32.1158 29.9817 32.1083 29.9675 32.1036C29.9533 32.0989 29.9384 32.0973 29.9236 32.0987C29.9088 32.1001 29.8945 32.1047 29.8817 32.112C26.4471 34.0287 23.2028 33.7762 20.1487 31.3544C19.6304 30.9422 19.4322 30.4616 19.5541 29.9128C19.635 29.5483 19.8935 29.1692 20.3296 28.7755C22.1642 27.1212 24.3753 26.5161 26.9628 26.9601C26.9746 26.9621 26.9867 26.9613 26.9981 26.9579C27.0095 26.9544 27.0199 26.9483 27.0285 26.9402C27.037 26.932 27.0434 26.922 27.0472 26.911C27.051 26.8999 27.0521 26.8881 27.0503 26.8766C26.7136 24.2387 27.379 21.9713 29.0466 20.0745C29.4058 19.6662 29.7584 19.4296 30.1044 19.3646C30.6094 19.2692 31.0522 19.4548 31.4326 19.9214C33.918 22.9582 34.1918 26.2258 32.2538 29.724C32.2473 29.7355 32.2431 29.7481 32.2415 29.7612C32.2399 29.7742 32.2409 29.7874 32.2444 29.7999C32.248 29.8123 32.254 29.8238 32.2621 29.8337C32.2702 29.8435 32.2802 29.8515 32.2916 29.8572C33.4647 30.4418 34.6186 30.4563 35.7533 29.9009C35.8991 29.8293 36.1695 29.6497 36.5645 29.3621C36.7422 29.2335 36.9251 29.1135 37.1133 29.0022C37.2883 28.8988 37.4924 28.8405 37.7257 28.8272C38.8472 28.7569 39.8771 28.5926 40.8156 28.3341C42.7298 27.8065 44.3708 26.7792 45.7388 25.2521C47.2844 23.5262 48.205 21.5273 48.5006 19.2553C48.5046 19.2263 48.4968 19.197 48.4789 19.1735C48.4611 19.1501 48.4346 19.1345 48.4052 19.13C45.6401 18.6819 43.3932 17.3736 41.6647 15.205C40.2437 13.4194 39.5298 11.3336 39.5232 8.94761C39.5219 8.2729 39.7512 7.81756 40.2112 7.58161C40.4922 7.43845 40.9369 7.39669 41.5454 7.45634C45.1827 7.80629 47.9671 9.54743 49.8985 12.6798C49.904 12.6883 49.9116 12.6953 49.9206 12.7C49.9295 12.7048 49.9396 12.7072 49.9497 12.707C49.9599 12.7068 49.9698 12.704 49.9786 12.6989C49.9874 12.6938 49.9947 12.6865 49.9999 12.6778C51.7722 9.74295 54.3252 8.02501 57.659 7.52395C58.4809 7.40067 59.088 7.40597 59.4804 7.53985C60.2147 7.79039 60.5382 8.42534 60.4507 9.4447C60.399 10.0558 60.2313 10.8339 59.9476 11.779C59.0025 14.9286 57.0075 17.1178 53.9627 18.3466C53.162 18.6687 52.3428 18.9325 51.5051 19.1379C51.4789 19.1441 51.4562 19.1602 51.4417 19.1829C51.4272 19.2055 51.4221 19.2329 51.4275 19.2592C52.4495 24.3852 55.4168 27.4884 60.3294 28.5687C60.5852 28.6244 60.9683 28.6622 61.4787 28.6821C61.9651 28.7019 62.3476 28.7722 62.6259 28.8928C62.7969 28.9671 63.1157 29.1758 63.5823 29.5192C64.0065 29.8293 64.3273 30.0355 64.5447 30.1375C65.5959 30.6267 66.6603 30.5949 67.738 30.0421C67.7543 30.0336 67.7688 30.0219 67.7806 30.0077C67.7923 29.9935 67.8012 29.977 67.8065 29.9593C67.8119 29.9415 67.8137 29.9228 67.8118 29.9043C67.81 29.8857 67.8045 29.8677 67.7957 29.8512C65.9584 26.4763 66.1612 23.3181 68.4041 20.3767C69.3028 19.1996 70.2208 19.193 71.158 20.3568C72.7208 22.3014 73.32 24.5264 72.9555 27.0317C72.9537 27.043 72.9546 27.0546 72.9582 27.0654C72.9618 27.0762 72.968 27.0861 72.9762 27.094C72.9843 27.102 72.9943 27.1079 73.0052 27.1113C73.0162 27.1146 73.0277 27.1153 73.039 27.1132ZM43.655 10.594C43.2627 10.4389 42.8617 10.3043 42.4521 10.1903C42.4301 10.1844 42.407 10.1839 42.3848 10.1891C42.3626 10.1943 42.3422 10.2049 42.3253 10.22C42.3084 10.2351 42.2957 10.2541 42.2883 10.2754C42.281 10.2966 42.2791 10.3193 42.2831 10.3414C42.5323 11.7558 43.1215 12.9787 44.0507 14.01C45.2 15.2838 46.6488 16.0918 48.3973 16.4338C48.4089 16.436 48.421 16.4353 48.4323 16.4319C48.4436 16.4284 48.4539 16.4222 48.4622 16.414C48.4705 16.4057 48.4765 16.3955 48.4798 16.3844C48.483 16.3733 48.4834 16.3615 48.4808 16.3503C47.8829 13.556 46.2744 11.6372 43.655 10.594ZM56.7643 12.6281C57.1672 11.9096 57.4489 11.158 57.6093 10.3733C57.6132 10.3546 57.6123 10.3353 57.6067 10.317C57.6011 10.2988 57.591 10.2823 57.5773 10.269C57.5636 10.2557 57.5468 10.2461 57.5284 10.241C57.51 10.236 57.4907 10.2356 57.4721 10.24C54.1913 11.0062 52.1963 13.0244 51.4872 16.2946C51.4847 16.3052 51.4849 16.3162 51.4877 16.3267C51.4906 16.3372 51.496 16.3469 51.5035 16.3547C51.511 16.3626 51.5203 16.3685 51.5306 16.3719C51.541 16.3753 51.552 16.3761 51.5627 16.3741C53.8838 15.9287 55.6176 14.68 56.7643 12.6281ZM30.2237 23.0351C29.4694 24.5184 29.4376 26.0435 30.1282 27.6103C30.2025 27.78 30.2827 27.7827 30.3688 27.6183C31.1509 26.1177 31.1463 24.59 30.3549 23.0351C30.3112 22.949 30.2674 22.949 30.2237 23.0351ZM69.7184 23.1823C68.939 24.7186 68.9231 26.2404 69.6707 27.7475C69.7356 27.8788 69.8026 27.8801 69.8715 27.7515C70.643 26.3225 70.6277 24.8001 69.8258 23.1842C69.79 23.1127 69.7542 23.112 69.7184 23.1823ZM45.8999 28.7516C48.6544 30.3171 51.3566 30.3364 54.0064 28.8093C54.0203 28.8012 54.0319 28.7898 54.0404 28.7761C54.0489 28.7624 54.0539 28.7469 54.0551 28.7309C54.0563 28.7149 54.0535 28.6988 54.0471 28.6841C54.0407 28.6693 54.0308 28.6564 54.0183 28.6463C52.3176 27.2849 50.9775 25.6266 49.9979 23.6714C49.9674 23.6104 49.9369 23.6104 49.9064 23.6714C48.9387 25.6412 47.6006 27.2975 45.8919 28.6403C45.8833 28.6471 45.8765 28.656 45.8721 28.666C45.8676 28.6761 45.8657 28.6871 45.8665 28.6981C45.8673 28.709 45.8707 28.7197 45.8766 28.729C45.8824 28.7383 45.8904 28.7461 45.8999 28.7516ZM27.8754 30.1216C26.3908 29.3674 24.8631 29.3356 23.2923 30.0262C23.0961 30.1123 23.0948 30.2005 23.2883 30.2906C24.8498 31.0184 26.3789 30.9919 27.8754 30.2111C27.9337 30.1819 27.9337 30.1521 27.8754 30.1216ZM76.8745 30.1892C75.2706 29.4018 73.7064 29.4105 72.182 30.2151C72.1223 30.2456 72.1237 30.2754 72.186 30.3046C73.6918 31.0389 75.2533 31.0509 76.8705 30.3403C76.9792 30.2913 76.9805 30.2409 76.8745 30.1892ZM68.2609 42.2784C64.4194 38.3826 60.5024 34.4509 56.5097 30.4835C56.4803 30.4538 56.4411 30.4356 56.3989 30.4319C56.3568 30.4283 56.3144 30.4395 56.2791 30.4636C54.8475 31.4605 53.3377 32.1212 51.7496 32.446C50.1881 32.7655 48.718 32.7164 47.3394 32.2989C46.0046 31.8933 44.7559 31.2921 43.5934 30.4954C43.5695 30.4793 43.5407 30.472 43.512 30.4749C43.4833 30.4779 43.4565 30.4907 43.4363 30.5113L30.5498 43.372C30.5132 43.4082 30.4903 43.4558 30.4848 43.5069C30.4794 43.558 30.4918 43.6094 30.5199 43.6524C33.2294 47.8465 33.2261 52.0598 30.51 56.2924C30.4864 56.3281 30.4761 56.3711 30.4809 56.4139C30.4856 56.4567 30.505 56.4967 30.5358 56.527L43.4264 69.344C43.4572 69.3749 43.4979 69.3943 43.5414 69.3986C43.5849 69.403 43.6286 69.3921 43.665 69.3678C47.9161 66.6239 52.1089 66.6305 56.2433 69.3877C56.2662 69.4033 56.2938 69.4104 56.3214 69.4079C56.3489 69.4053 56.3748 69.3933 56.3944 69.3738L69.3506 56.4912C69.3782 56.464 69.3958 56.4282 69.4005 56.3899C69.4052 56.3516 69.3967 56.313 69.3764 56.2804C68.7773 55.3048 68.302 54.3067 67.9508 53.286C67.573 52.1844 67.3781 51.1081 67.3662 50.0569C67.3423 47.8644 68.0005 45.7528 69.3406 43.722C69.3837 43.6563 69.4047 43.5786 69.4004 43.5005C69.3961 43.4225 69.3668 43.3481 69.3168 43.2885C69.1802 43.1268 69.0066 42.9545 68.7958 42.7716C68.5572 42.5634 68.3789 42.3991 68.2609 42.2784ZM61.9698 32.2691C64.0907 34.443 66.2335 36.6004 68.3981 38.7412C68.5811 38.9228 68.6414 38.889 68.5791 38.6397C68.5393 38.4807 68.4651 38.3216 68.3564 38.1625C67.3344 36.6554 66.8956 34.9898 67.0401 33.1658C67.041 33.1538 67.0393 33.1418 67.035 33.1306C67.0307 33.1193 67.024 33.1091 67.0153 33.1006C67.0066 33.0921 66.9962 33.0856 66.9847 33.0814C66.9732 33.0772 66.9609 33.0755 66.9486 33.0763C65.183 33.1863 63.5731 32.7542 62.1189 31.7799C62.1163 31.7786 62.0433 31.7209 61.9002 31.6069C61.7438 31.4823 61.5416 31.3955 61.2937 31.3465C61.0869 31.3054 61.0525 31.3643 61.1903 31.5234C61.3176 31.6706 61.4435 31.7985 61.5681 31.9072C61.7855 32.0967 61.9194 32.2174 61.9698 32.2691ZM33.0869 34.335C32.957 35.7255 32.4672 36.9695 31.6175 38.0671C31.4942 38.2275 31.424 38.419 31.4067 38.6417C31.3961 38.765 31.4352 38.7829 31.5241 38.6954L38.6364 31.6049C38.8233 31.4194 38.7889 31.3564 38.533 31.416C38.3289 31.4624 38.1426 31.5433 37.9743 31.6586C36.5758 32.6197 34.9785 33.0498 33.1823 32.9491C33.165 32.948 33.1475 32.9509 33.1314 32.9574C33.1152 32.964 33.1006 32.9741 33.0887 32.9869C33.0767 32.9998 33.0677 33.0152 33.0623 33.032C33.0568 33.0489 33.055 33.0667 33.0571 33.0843C33.1154 33.5071 33.1253 33.924 33.0869 34.335ZM14.3506 44.41C13.2345 43.2899 11.9169 42.5747 10.3978 42.2645C10.3755 42.2599 10.3525 42.261 10.3308 42.2676C10.3091 42.2743 10.2895 42.2863 10.2736 42.3025C10.2578 42.3188 10.2463 42.3387 10.2402 42.3606C10.2341 42.3824 10.2336 42.4055 10.2387 42.4276C11.0022 45.5824 12.9999 47.594 16.2316 48.4622C16.2581 48.4694 16.286 48.4697 16.3127 48.4629C16.3393 48.4561 16.3637 48.4425 16.3835 48.4235C16.4033 48.4045 16.4179 48.3807 16.4258 48.3543C16.4336 48.328 16.4346 48.3001 16.4285 48.2733C16.0825 46.7383 15.3899 45.4505 14.3506 44.41ZM84.5277 45.6805C83.9908 46.4838 83.6303 47.3892 83.446 48.3966C83.4441 48.4063 83.4446 48.4163 83.4477 48.4257C83.4507 48.4352 83.4561 48.4437 83.4634 48.4506C83.4707 48.4575 83.4796 48.4626 83.4895 48.4653C83.4993 48.468 83.5096 48.4683 83.5196 48.4662C86.8216 47.6841 88.8729 45.6553 89.6736 42.3798C89.6778 42.3625 89.6777 42.3443 89.6731 42.327C89.6686 42.3097 89.6598 42.2938 89.6475 42.2808C89.6353 42.2677 89.62 42.258 89.603 42.2524C89.586 42.2467 89.5679 42.2455 89.5503 42.2486C88.3904 42.462 87.369 42.9088 86.4862 43.5888C85.7161 44.1826 85.0632 44.8799 84.5277 45.6805ZM23.7993 50.0668C25.6392 51.0186 27.2345 52.3196 28.5853 53.97C28.6043 53.9933 28.6287 54.0116 28.6564 54.0233C28.6841 54.0351 28.7142 54.0399 28.7442 54.0373C28.7742 54.0348 28.8031 54.025 28.8284 54.0087C28.8537 53.9925 28.8747 53.9703 28.8895 53.9441C30.3834 51.2638 30.3456 48.5756 28.7761 45.8794C28.7705 45.8695 28.7624 45.8611 28.7527 45.855C28.743 45.849 28.732 45.8454 28.7206 45.8446C28.7092 45.8438 28.6978 45.8459 28.6874 45.8505C28.6769 45.8552 28.6678 45.8624 28.6608 45.8714C27.3207 47.5854 25.7008 48.9149 23.8013 49.86C23.6634 49.9276 23.6628 49.9966 23.7993 50.0668ZM71.1142 45.8992C69.611 48.6034 69.6203 51.3261 71.1421 54.0674C71.1475 54.0773 71.1554 54.0857 71.1649 54.0918C71.1744 54.0979 71.1853 54.1015 71.1966 54.1023C71.2078 54.1031 71.2191 54.101 71.2294 54.0963C71.2397 54.0916 71.2486 54.0844 71.2554 54.0754C72.5584 52.3627 74.1677 51.0358 76.0831 50.0947C76.2382 50.0178 76.2389 49.9409 76.0851 49.864C74.2479 48.9454 72.64 47.6198 71.2614 45.8873C71.2526 45.8758 71.2411 45.8667 71.2279 45.8608C71.2146 45.8549 71.2001 45.8525 71.1855 45.8536C71.1709 45.8548 71.1568 45.8596 71.1443 45.8676C71.1319 45.8755 71.1216 45.8864 71.1142 45.8992ZM11.1394 54.9403C10.6198 55.7303 10.297 56.6165 10.1711 57.5987C10.1694 57.6098 10.1705 57.621 10.1743 57.6315C10.178 57.642 10.1843 57.6514 10.1926 57.6589C10.2009 57.6664 10.2108 57.6717 10.2217 57.6744C10.2325 57.6771 10.2438 57.677 10.2546 57.6743C10.9996 57.4755 11.7147 57.1977 12.4 56.8412C14.5329 55.7303 15.8764 53.966 16.4304 51.5482C16.4329 51.5373 16.4326 51.526 16.4297 51.5153C16.4267 51.5045 16.4212 51.4947 16.4135 51.4866C16.4058 51.4786 16.3963 51.4725 16.3857 51.469C16.3751 51.4656 16.3639 51.4647 16.3529 51.4666C15.0777 51.6973 13.9695 52.1805 13.0284 52.9162C12.2635 53.5153 11.6339 54.19 11.1394 54.9403ZM85.8142 55.8132C86.8561 56.7822 88.0895 57.4006 89.5145 57.6683C89.5367 57.6728 89.5597 57.6716 89.5813 57.6647C89.6029 57.6578 89.6224 57.6455 89.638 57.629C89.6535 57.6125 89.6646 57.5922 89.6701 57.5702C89.6756 57.5482 89.6754 57.5252 89.6696 57.5033C88.8239 54.3166 86.7977 52.3044 83.5912 51.4666C83.5765 51.4626 83.5611 51.4624 83.5464 51.4662C83.5317 51.4699 83.5181 51.4773 83.507 51.4879C83.4959 51.4984 83.4876 51.5117 83.4828 51.5264C83.478 51.5411 83.477 51.5568 83.4798 51.572C83.7754 53.2263 84.5535 54.6401 85.8142 55.8132ZM68.5015 61.1201C66.0731 63.5433 63.6658 65.9478 61.2798 68.3339C61.0903 68.5234 61.0876 68.601 61.2719 68.5665C61.313 68.5586 61.36 68.542 61.413 68.5168C61.9128 68.2742 62.4132 68.035 62.9142 67.799C64.1444 67.2211 65.4401 66.952 66.8015 66.9917C66.8138 66.9921 66.8261 66.9898 66.8375 66.985C66.8489 66.9802 66.8592 66.9731 66.8677 66.9641C66.8761 66.9551 66.8826 66.9444 66.8866 66.9327C66.8906 66.921 66.8921 66.9086 66.891 66.8963C66.7213 64.9981 67.1972 63.2854 68.3186 61.7584C68.4618 61.5635 68.5353 61.3561 68.5393 61.136C68.5406 61.0989 68.528 61.0936 68.5015 61.1201ZM37.4792 67.2124C35.5452 65.3023 33.6045 63.3988 31.6573 61.5019C31.5009 61.3508 31.424 61.3494 31.4266 61.4979C31.428 61.5456 31.4452 61.5927 31.4783 61.6391C32.5772 63.1396 33.0538 64.847 32.908 66.7611C32.9067 66.7787 32.9093 66.7964 32.9155 66.813C32.9218 66.8295 32.9315 66.8444 32.944 66.8568C32.9565 66.8691 32.9715 66.8785 32.9879 66.8843C33.0044 66.8901 33.0219 66.8921 33.0392 66.8903C34.9878 66.6981 36.7336 67.2197 38.2765 68.4552C38.3786 68.536 38.482 68.5632 38.5867 68.5367C38.5975 68.5342 38.6073 68.5287 38.615 68.5207C38.6227 68.5127 38.6281 68.5025 38.6307 68.4911C38.6333 68.4797 38.633 68.4674 38.6298 68.4555C38.6267 68.4437 38.6207 68.4326 38.6125 68.4233C38.2507 68.0045 37.8729 67.6008 37.4792 67.2124ZM23.0556 69.7814C24.6371 70.4813 26.2039 70.4826 27.7561 69.7854C27.8701 69.7337 27.8721 69.678 27.7621 69.6184C26.2151 68.7779 24.6443 68.764 23.0497 69.5766C22.9092 69.6482 22.9112 69.7164 23.0556 69.7814ZM72.0627 69.8251C73.664 70.6284 75.2507 70.6304 76.8228 69.8311C76.9288 69.7781 76.9282 69.7257 76.8208 69.674C75.2845 68.941 73.6991 68.9582 72.0647 69.7257C71.9957 69.7575 71.9951 69.7907 72.0627 69.8251ZM53.9925 71.0659C51.3069 69.5826 48.6093 69.6018 45.8999 71.1235C45.887 71.1311 45.8761 71.1417 45.8683 71.1544C45.8604 71.1671 45.8558 71.1815 45.8548 71.1965C45.8539 71.2114 45.8565 71.2263 45.8627 71.2399C45.8688 71.2536 45.8781 71.2655 45.8899 71.2746C47.5482 72.5273 48.8824 74.1439 49.8925 76.1243C49.9442 76.2263 49.9952 76.2257 50.0456 76.1223C50.9695 74.2267 52.2911 72.6175 54.0104 71.2945C54.0284 71.2806 54.0426 71.2624 54.0518 71.2416C54.061 71.2208 54.0649 71.1981 54.0631 71.1754C54.0614 71.1527 54.054 71.1308 54.0416 71.1117C54.0293 71.0926 54.0124 71.0768 53.9925 71.0659ZM30.0348 72.0819C29.2156 73.6633 29.2341 75.2036 30.0905 76.7029C30.1236 76.7612 30.1567 76.7605 30.1899 76.7009C30.9773 75.2374 30.9899 73.6985 30.2277 72.0839C30.1653 71.9527 30.1011 71.952 30.0348 72.0819ZM69.6568 72.1237C68.8018 73.7091 68.7872 75.2944 69.613 76.8798C69.6621 76.9753 69.7091 76.9746 69.7542 76.8778C70.527 75.2315 70.5131 73.6468 69.7124 72.1237C69.6939 72.0879 69.6753 72.0879 69.6568 72.1237ZM43.9056 86.1098C43.1248 87.0417 42.5813 88.1651 42.2751 89.48C42.2708 89.4984 42.2712 89.5175 42.2761 89.5357C42.2811 89.5539 42.2905 89.5706 42.3036 89.5842C42.3166 89.5978 42.3328 89.608 42.3508 89.6137C42.3687 89.6195 42.3878 89.6207 42.4063 89.6172C44.3509 89.2607 45.8866 88.3447 47.0134 86.8693C47.7331 85.9255 48.2236 84.8518 48.4847 83.6482C48.4894 83.6259 48.4886 83.6028 48.4823 83.581C48.476 83.5592 48.4644 83.5393 48.4486 83.5231C48.4328 83.5069 48.4133 83.495 48.3919 83.4883C48.3704 83.4817 48.3477 83.4806 48.3257 83.4852C46.556 83.8298 45.0827 84.7047 43.9056 86.1098ZM54.0521 88.0743C54.984 88.8763 56.1253 89.4065 57.4761 89.665C57.4968 89.6686 57.5182 89.667 57.5381 89.6604C57.5581 89.6538 57.576 89.6423 57.5903 89.627C57.6046 89.6118 57.6147 89.5932 57.6198 89.5731C57.6248 89.5529 57.6247 89.5319 57.6193 89.5119C56.7788 86.3212 54.7699 84.3282 51.5925 83.5329C51.5812 83.5303 51.5695 83.5307 51.5583 83.5338C51.5471 83.537 51.537 83.5429 51.5287 83.551C51.5204 83.5591 51.5142 83.5691 51.5108 83.5802C51.5074 83.5913 51.5068 83.603 51.509 83.6144C51.8775 85.445 52.7252 86.9316 54.0521 88.0743Z" fill="#D3A76E"/>
<path d="M20.9937 16.2429C22.8031 17.8044 23.7297 19.7378 23.7734 22.0429C23.7827 22.5334 23.7138 22.9039 23.5666 23.1544C23.4208 23.4023 23.2134 23.5899 22.9443 23.7171C22.7375 23.8139 22.475 23.8437 22.1569 23.8066C17.6791 23.2856 15.0339 20.7518 14.2214 16.2051C14.0915 15.4787 14.236 14.9345 14.6548 14.5727C14.9624 14.3062 15.4349 14.1889 16.0725 14.2207C17.8965 14.3109 19.5369 14.9849 20.9937 16.2429ZM18.6375 17.7322C18.2385 17.4631 17.8004 17.2543 17.3232 17.1058C17.1747 17.0608 17.125 17.1118 17.1741 17.2589C17.7746 19.0736 19.0001 20.2932 20.8506 20.9175C20.9513 20.952 20.9864 20.9182 20.9559 20.8161C20.7014 19.9651 20.2958 19.248 19.7391 18.6647C19.405 18.3134 19.0378 18.0026 18.6375 17.7322Z" fill="#D3A76E"/>
<path d="M78.4075 16.7141C79.6456 15.4243 81.1276 14.6363 82.8535 14.35C83.6475 14.2174 84.1804 14.1664 84.4521 14.1969C84.932 14.2486 85.2892 14.4858 85.5239 14.9087C85.6869 15.2003 85.7446 15.5887 85.6968 16.0739C85.3814 19.2711 83.7721 21.5644 80.8691 22.9536C80.2063 23.2704 79.4653 23.5229 78.6461 23.7111C77.9887 23.8609 77.4889 23.8808 77.1469 23.7708C76.5743 23.5852 76.2475 23.118 76.1667 22.369C76.0765 21.5339 76.168 20.72 76.441 19.9273C76.8613 18.7131 77.5167 17.642 78.4075 16.7141ZM79.9485 18.955C79.515 19.5025 79.1962 20.1109 78.9921 20.7803C78.955 20.8996 78.9961 20.9414 79.1154 20.9056C80.9897 20.3449 82.1987 19.1088 82.7421 17.1973C82.762 17.131 82.7388 17.1078 82.6726 17.1277C81.571 17.4432 80.663 18.0523 79.9485 18.955Z" fill="#D3A76E"/>
<path d="M54.9409 44.8792C54.9131 44.7705 54.8806 44.7685 54.8435 44.8733C53.7937 47.8134 53.0116 50.7508 52.4972 53.6857C52.3448 54.5539 52.0757 55.3453 51.69 56.0598C51.3864 56.6178 51.0557 56.9863 50.6978 57.1653C50.1795 57.4251 49.6234 57.3548 49.0295 56.9545C48.8214 56.814 48.6604 56.6311 48.5464 56.4057C48.4668 56.2467 48.4204 56.016 48.4072 55.7138C48.2388 51.9889 47.5959 48.3436 46.4785 44.7778C46.4361 44.6426 46.395 44.6426 46.3552 44.7778C45.3199 48.2389 44.6499 51.7881 44.345 55.4255C44.3211 55.7184 44.2422 55.9716 44.1084 56.185C43.9877 56.3786 43.7922 56.5396 43.5218 56.6682C42.855 56.9837 42.2652 56.9552 41.7522 56.5827C41.3174 56.2659 41.035 55.7668 40.9051 55.0855C40.8004 54.5274 40.7871 53.9282 40.8654 53.288C41.3651 49.2278 42.4381 45.3796 44.0845 41.7436C44.2383 41.4016 44.4364 41.0503 44.679 40.6897C45.0263 40.1728 45.2636 39.85 45.3909 39.7214C45.6997 39.4086 46.0755 39.2349 46.5183 39.2005C46.8947 39.1726 47.2639 39.2873 47.6258 39.5445C48.1799 39.9382 48.5954 40.4392 48.8725 41.0477C48.9494 41.2173 49.1382 41.8238 49.4391 42.867C49.8554 44.3119 50.2007 45.7488 50.4751 47.1778C50.5255 47.4389 50.5904 47.4429 50.6699 47.1897C51.1365 45.6891 51.6548 44.2085 52.2248 42.7477C52.5403 41.9431 52.8923 41.2273 53.2807 40.6003C53.5259 40.2026 53.8705 39.854 54.3146 39.5544C54.9124 39.1514 55.4732 39.0739 55.9968 39.3218C56.348 39.4875 56.6867 39.8586 57.0128 40.4352C57.6544 41.566 58.1084 42.8305 58.3748 44.229C59.1158 48.1116 59.5387 51.8676 59.6434 55.497C59.6567 55.9583 59.5963 56.2957 59.4625 56.5091C59.261 56.8286 58.9395 57.0248 58.4981 57.0977C57.3952 57.2806 56.6489 56.991 56.2592 56.2288C56.0803 55.8788 55.9775 55.1955 55.951 54.1788C55.894 52.0035 55.8364 50.5633 55.778 49.8581C55.6349 48.1481 55.3558 46.4885 54.9409 44.8792Z" fill="#D3A76E"/>
<path d="M8.56646 48.3549C8.90978 48.6001 9.22593 48.9474 9.5149 49.3968C9.82376 49.8753 9.80587 50.3479 9.46122 50.8145C9.33926 50.9801 9.01119 51.23 8.47698 51.5641C8.07931 51.8119 7.71676 52.0075 7.38935 52.1506C5.15046 53.1276 2.98713 52.8936 0.899352 51.4487C0.11859 50.9092 -0.153815 50.2723 0.082137 49.5379C0.213369 49.1283 0.519576 48.7545 1.00076 48.4165C1.40771 48.1302 1.84316 47.8883 2.30711 47.6907C4.53274 46.743 6.61919 46.9643 8.56646 48.3549ZM5.78474 49.9669C5.78482 49.9468 5.75928 49.9268 5.70958 49.908C5.65989 49.8893 5.58701 49.8722 5.49511 49.8576C5.40321 49.8431 5.29409 49.8314 5.17398 49.8233C5.05387 49.8152 4.92512 49.8108 4.79508 49.8103C4.53246 49.8094 4.28055 49.8247 4.09475 49.8527C3.90895 49.8808 3.80449 49.9194 3.80434 49.96C3.80427 49.9801 3.82981 50.0001 3.8795 50.0188C3.9292 50.0376 4.00208 50.0547 4.09398 50.0693C4.18588 50.0838 4.295 50.0954 4.41511 50.1036C4.53522 50.1117 4.66397 50.1161 4.79401 50.1165C5.05662 50.1175 5.30854 50.1022 5.49434 50.0741C5.68014 50.0461 5.7846 50.0075 5.78474 49.9669Z" fill="#D3A76E"/>
<path d="M90.9043 51.1684C90.3807 50.7429 90.1812 50.2597 90.3058 49.7189C90.3907 49.3451 90.6518 48.9653 91.0892 48.5796C91.8475 47.9062 92.7131 47.474 93.686 47.2832C94.6696 47.0896 95.6412 47.1062 96.601 47.3329C97.5514 47.5582 98.4422 48.0188 99.2733 48.7148C99.7664 49.1283 99.9838 49.5863 99.9255 50.0887C99.8804 50.4798 99.6359 50.8503 99.1918 51.2002C98.6695 51.6111 98.0339 51.9757 97.285 52.2938C96.19 52.7591 95.0587 52.8638 93.8908 52.608C92.7813 52.3641 91.7858 51.8842 90.9043 51.1684ZM96.076 49.9865C96.0763 49.9401 95.9728 49.895 95.7884 49.8613C95.604 49.8275 95.3537 49.8077 95.0927 49.8064C94.9635 49.8057 94.8355 49.8096 94.716 49.8177C94.5965 49.8259 94.488 49.8382 94.3965 49.854C94.305 49.8698 94.2324 49.8887 94.1828 49.9096C94.1333 49.9306 94.1077 49.9532 94.1076 49.9762C94.1073 50.0226 94.2108 50.0677 94.3952 50.1014C94.5796 50.1352 94.8299 50.155 95.0909 50.1563C95.2201 50.157 95.3482 50.1531 95.4676 50.145C95.5871 50.1368 95.6956 50.1245 95.7871 50.1087C95.8786 50.093 95.9512 50.074 96.0008 50.0531C96.0503 50.0321 96.0759 50.0095 96.076 49.9865Z" fill="#D3A76E"/>
<path d="M14.806 85.4119C14.46 85.2104 14.2486 84.8916 14.1717 84.4555C14.12 84.1625 14.1743 83.6833 14.3347 83.0179C15.2454 79.2148 17.5492 76.9421 21.2462 76.1998C22.0111 76.0461 22.5944 76.0474 22.996 76.2038C23.5249 76.4106 23.8033 76.8288 23.8311 77.4584C23.843 77.7169 23.7986 78.1809 23.6979 78.8503C23.3904 80.8784 22.481 82.5109 20.9699 83.7476C19.9664 84.5682 18.7376 85.1474 17.2835 85.4854C16.6565 85.6313 16.2469 85.7088 16.0546 85.7181C15.6106 85.7419 15.1944 85.6399 14.806 85.4119ZM18.0609 80.8426C17.6407 81.3689 17.3265 81.9833 17.1184 82.6858C17.0853 82.7945 17.1224 82.8297 17.2298 82.7912C19.0776 82.143 20.2958 80.9222 20.8844 79.1287C20.9228 79.012 20.8837 78.9722 20.7671 79.0094C19.6536 79.3673 18.7515 79.9784 18.0609 80.8426Z" fill="#D3A76E"/>
<path d="M78.7316 83.4235C76.9713 81.805 76.0971 79.8458 76.109 77.5459C76.1143 76.5014 76.677 76.0281 77.7971 76.1262C81.4504 76.4483 83.9365 78.2968 85.2554 81.6718C85.5789 82.5016 85.6949 83.4129 85.6034 84.4057C85.5636 84.8313 85.4112 85.16 85.1461 85.392C84.9366 85.5736 84.6198 85.6617 84.1956 85.6564C82.145 85.6339 80.3236 84.8896 78.7316 83.4235ZM80.72 81.7334C81.3828 82.2835 82.0668 82.6374 82.772 82.7952C82.8383 82.8098 82.8601 82.7852 82.8376 82.7216C82.1867 80.8844 80.9679 79.6503 79.181 79.0193C79.0538 78.9742 79.0093 79.0166 79.0478 79.1465C79.3659 80.211 79.9233 81.0733 80.72 81.7334Z" fill="#D3A76E"/>
<path d="M50.9065 90.6273C50.9927 90.6976 51.0696 90.7771 51.1372 90.8659C53.3403 93.7344 53.3628 96.5056 51.2048 99.1792C50.8959 99.5636 50.6222 99.8076 50.3836 99.911C49.974 100.087 49.5724 100.002 49.1787 99.6545C48.557 99.1057 48.0247 98.3156 47.582 97.2843C47.1008 96.1616 47.0034 95.0043 47.2897 93.8127C47.5217 92.8529 47.9704 91.937 48.6358 91.0647C48.9699 90.626 49.2801 90.3609 49.5664 90.2694C49.9972 90.1315 50.4439 90.2509 50.9065 90.6273ZM49.9541 96.0675C49.9979 96.0675 50.0399 95.965 50.0708 95.7827C50.1018 95.6003 50.1192 95.353 50.1192 95.0952C50.1192 94.8373 50.1018 94.59 50.0708 94.4076C50.0399 94.2253 49.9979 94.1228 49.9541 94.1228C49.9324 94.1228 49.911 94.148 49.891 94.1969C49.8709 94.2457 49.8527 94.3173 49.8374 94.4076C49.8221 94.4979 49.8099 94.6051 49.8016 94.7231C49.7933 94.841 49.7891 94.9675 49.7891 95.0952C49.7891 95.2228 49.7933 95.3493 49.8016 95.4672C49.8099 95.5852 49.8221 95.6924 49.8374 95.7827C49.8527 95.873 49.8709 95.9446 49.891 95.9934C49.911 96.0423 49.9324 96.0675 49.9541 96.0675Z" fill="#D3A76E"/>
</svg>
