<svg width="48" height="48" viewBox="0 0 48 48" fill="none" xmlns="http://www.w3.org/2000/svg">
<path d="M29.2235 13.8353C29.3647 13.9765 29.3647 14.1177 29.3647 14.1177C30.2118 14.6824 30.9176 15.3882 32.047 14.8235C31.9059 14.2588 31.6235 13.8353 31.6235 13.4118C31.3412 12.2824 31.6235 11.2941 32.4706 10.4471C32.8941 10.0235 33.1765 10.0235 33.6 10.4471C34.1647 11.1529 34.5882 12 34.5882 12.8471C34.5882 12.9882 34.5882 13.2706 34.5882 13.4118C35.0118 13.4118 35.4353 13.4118 35.8588 13.5529C36.5647 13.6941 37.1294 13.9765 37.6941 14.5412C38.1176 14.9647 38.1176 15.2471 37.6941 15.6706C36.7059 16.6588 35.0118 16.9412 33.7412 16.3765C33.6 16.2353 33.3176 16.2353 33.1765 16.0941C32.7529 16.6588 32.8941 17.3647 33.3176 17.9294C33.4588 18.2118 33.6 18.4941 33.6 18.7765C33.7412 21.0353 35.5765 23.0118 37.6941 23.4353H37.8353C37.9765 22.3059 38.4 21.4588 39.247 20.6118C40.0941 19.7647 41.2235 19.3412 42.3529 19.3412C42.9176 19.3412 43.2 19.6235 43.2 20.1882C43.2 21.7412 42.4941 22.8706 41.3647 23.8588C41.2235 24 41.0823 24.1412 40.9412 24.1412C42.0706 24.8471 42.9176 25.8353 43.2 27.1059C43.3412 27.3882 43.3412 27.8118 43.3412 28.2353C43.3412 28.6588 43.0588 28.9412 42.6353 28.9412C40.3765 28.9412 38.4 27.3882 37.9765 25.1294C37.9765 25.1294 37.9765 24.9882 37.9765 24.8471C37.2706 24.8471 36.5647 25.1294 36 25.5529C34.5882 26.5412 33.7412 27.8118 33.7412 29.5059C33.7412 29.7882 33.6 30.0706 33.4588 30.2118C33.0353 30.7765 32.8941 31.4824 33.1765 32.0471C33.6 31.9059 34.1647 31.6235 34.5882 31.6235C35.8588 31.3412 36.847 31.7647 37.6941 32.6118C37.9765 32.8941 37.9765 33.3177 37.6941 33.6C36.9882 34.3059 36.1412 34.5882 35.1529 34.7294C35.0118 34.7294 34.7294 34.7294 34.5882 34.7294C34.5882 35.2941 34.5882 35.7177 34.447 36.2824C34.3059 36.8471 33.8823 37.4118 33.6 37.8353C33.1765 38.2588 32.8941 38.2588 32.4706 37.8353C31.4823 36.8471 31.2 35.1529 31.9059 33.8824C32.047 33.7412 32.047 33.6 32.1882 33.4588C31.6235 33.1765 30.9176 33.1765 30.3529 33.6C30.0706 33.8824 29.7882 34.0235 29.3647 34.0235C26.9647 34.1647 25.1294 36 24.847 38.2588C25.4118 38.4 25.9765 38.5412 26.5412 38.8235C28.0941 39.6706 28.9412 41.0824 28.9412 42.9177C28.9412 43.4824 28.8 43.6235 28.2353 43.6235C26.6823 43.6235 25.4118 42.9177 24.4235 41.6471C24.2823 41.5059 24.2823 41.3647 24.1412 41.2235C24 41.3647 24 41.3647 23.8588 41.5059C23.0118 42.7765 21.7412 43.3412 20.3294 43.4824C19.4823 43.6235 19.2 43.2 19.3412 42.2118C19.6235 39.9529 21.1765 38.5412 23.4353 38.1177C23.8588 36.1412 21.3176 34.0235 18.3529 33.7412C17.7882 33.1765 16.9412 32.7529 16.0941 33.1765C16.5176 33.8824 16.8 34.5882 16.6588 35.4353C16.6588 36.2824 16.2353 37.1294 15.6706 37.6941C15.247 38.1177 14.9647 38.1177 14.5412 37.6941C13.9765 37.1294 13.5529 36.2824 13.5529 35.4353C13.5529 35.1529 13.5529 34.8706 13.5529 34.5882C12.9882 34.5882 12.5647 34.5882 12.1412 34.4471C11.5765 34.1647 11.0118 33.8824 10.447 33.6C10.0235 33.3177 10.0235 33.0353 10.447 32.6118C11.4353 31.4824 13.2706 31.2 14.6823 32.0471C14.8235 32.0471 14.8235 32.1882 14.9647 32.1882C15.247 31.7647 15.3882 31.0588 14.9647 30.4941C14.6823 30.0706 14.5412 29.6471 14.5412 29.0824C14.4 26.9647 12.4235 25.1294 10.3059 24.8471C9.88234 25.4118 9.74117 25.9765 9.31764 26.5412C8.47058 27.9529 7.05881 28.6588 5.3647 28.8C4.79999 28.8 4.65881 28.6588 4.65881 28.0941C4.65881 26.5412 5.3647 25.2706 6.63528 24.2824C6.77646 24.1412 6.91764 24.1412 6.91764 24C6.63528 23.7177 6.21175 23.4353 5.9294 23.1529C5.08234 22.3059 4.65881 21.1765 4.65881 19.9059C4.65881 19.3412 4.79999 19.2 5.3647 19.2C7.34117 19.2 9.31764 20.6118 9.88234 22.5882C9.88234 22.8706 10.0235 23.0118 10.0235 23.2941C10.8706 23.1529 11.7176 22.8706 12.2823 22.4471C13.5529 21.4588 14.2588 20.3294 14.2588 18.6353C14.2588 18.3529 14.4 18.0706 14.5412 17.7882C14.9647 17.2235 15.1059 16.5177 14.8235 15.8118C14.1176 16.2353 13.4118 16.3765 12.5647 16.3765C11.5765 16.3765 10.8706 15.9529 10.1647 15.3882C9.88234 15.1059 9.88234 14.8235 10.1647 14.4C10.8706 13.6941 11.7176 13.4118 12.7059 13.4118C12.847 13.4118 13.1294 13.4118 13.2706 13.4118C13.1294 12.4235 13.2706 11.5765 13.8353 10.7294C14.5412 9.74118 14.9647 9.74118 15.6706 10.7294C16.3765 11.8588 16.5176 13.1294 15.9529 14.4C15.9529 14.5412 15.8118 14.6824 15.8118 14.8235C16.3765 15.2471 17.0823 15.1059 17.647 14.6824C17.9294 14.4 18.2118 14.4 18.6353 14.2588C20.8941 14.1177 23.0118 12.1412 23.1529 10.0235C23.0118 10.0235 22.8706 9.88236 22.7294 9.88236C20.6118 9.45883 19.0588 7.62354 19.0588 5.50589C19.0588 5.22354 19.0588 4.94118 19.2 4.80001C21.3176 4.37648 22.7294 5.22354 23.8588 6.91765C25.4118 4.80001 26.5412 4.65883 28.3765 4.80001C28.8 5.50589 28.5176 7.05883 27.6706 8.18824C26.8235 9.17648 25.8353 9.74118 24.5647 10.0235C24.7059 12.1412 26.5412 14.1177 28.9412 14.4C28.9412 14.2588 28.9412 14.1177 28.9412 13.9765C29.0823 13.8353 29.2235 13.8353 29.2235 13.8353ZM15.6706 29.2235V29.3647C15.6706 29.3647 15.6706 29.3647 15.8118 29.5059C16.2353 30.2118 16.5176 30.9177 16.3765 31.7647C17.2235 31.6235 17.9294 31.9059 18.6353 32.3294C17.647 31.3412 16.6588 30.4941 15.8118 29.5059C15.6706 29.3647 15.6706 29.2235 15.6706 29.2235ZM29.5059 15.6706C29.3647 15.6706 29.3647 15.5294 29.2235 15.5294C29.2235 15.6706 29.3647 15.8118 29.5059 15.6706C30.3529 16.6588 31.3412 17.6471 32.3294 18.6353C32.3294 18.6353 32.3294 18.7765 32.4706 18.7765C32.4706 18.7765 32.4706 18.6353 32.3294 18.6353C31.9059 17.9294 31.6235 17.2235 31.7647 16.3765C30.9176 16.3765 30.0706 16.2353 29.5059 15.6706ZM18.6353 15.6706C17.9294 16.2353 17.2235 16.3765 16.3765 16.3765C16.3765 17.2235 16.2353 18.0706 15.6706 18.7765C15.6706 18.7765 15.6706 18.9177 15.5294 19.0588C15.6706 18.9177 15.6706 18.9177 15.8118 18.9177C16.8 17.7882 17.7882 16.8 18.6353 15.6706C18.7765 15.6706 18.7765 15.6706 18.9176 15.5294C18.7765 15.6706 18.6353 15.6706 18.6353 15.6706ZM39.247 24.7059C39.5294 26.1177 40.9412 27.5294 42.0706 27.3882C41.9294 26.1177 40.8 24.9882 39.247 24.7059C39.3882 24.7059 39.3882 24.7059 39.247 24.7059ZM32.7529 26.9647C32.1882 26.1177 31.7647 25.1294 31.7647 24.1412C31.7647 23.0118 32.1882 22.1647 32.7529 21.3177C30.7765 19.3412 28.8 17.3647 26.8235 15.3882C24.847 16.6588 23.0118 16.6588 21.0353 15.3882C19.0588 17.3647 17.0823 19.3412 15.1059 21.3177C16.3765 23.2941 16.3765 25.1294 15.1059 27.1059C17.0823 29.0824 19.0588 31.0588 21.0353 33.0353C22.8706 31.7647 24.847 31.7647 26.8235 33.0353C28.8 30.7765 30.7765 28.9412 32.7529 26.9647ZM24 35.8588C24.2823 35.5765 24.4235 35.1529 24.847 34.7294C25.1294 34.3059 25.5529 34.0235 25.8353 33.7412C24.9882 33.0353 23.0118 33.0353 22.3059 33.7412C22.8706 34.3059 23.4353 35.1529 24 35.8588ZM14.4 25.8353C15.1059 24.8471 15.1059 23.0118 14.4 22.3059C13.6941 22.8706 12.9882 23.5765 12.2823 24C12.9882 24.5647 13.6941 25.2706 14.4 25.8353ZM33.6 25.8353C34.3059 25.2706 35.0118 24.5647 35.7176 24C35.0118 23.4353 34.3059 22.8706 33.6 22.1647C32.8941 23.4353 32.8941 24.8471 33.6 25.8353ZM22.3059 14.4C23.2941 15.1059 24.9882 15.1059 25.8353 14.4C25.2706 13.6941 24.5647 12.9882 24 12.2824C23.4353 12.9882 22.8706 13.6941 22.3059 14.4ZM5.9294 20.6118C6.21175 22.0235 7.48234 23.4353 8.75293 23.2941C8.61175 21.8824 7.19999 20.6118 5.9294 20.6118ZM20.6118 5.92942C20.6118 7.20001 22.3059 8.75295 23.2941 8.61177C23.1529 7.34118 21.7412 6.0706 20.6118 5.92942ZM27.3882 42.0706C27.3882 40.8 25.8353 39.2471 24.7059 39.3882C24.847 40.6588 26.1176 41.9294 27.3882 42.0706ZM23.2941 39.2471C21.8823 39.3882 20.4706 40.9412 20.6118 41.9294C21.7412 42.0706 23.1529 40.6588 23.2941 39.2471ZM8.75293 24.7059C7.48234 24.7059 5.9294 26.2588 6.07058 27.3882C7.05881 27.5294 8.61175 26.1177 8.75293 24.7059ZM42.0706 20.6118C40.6588 20.7529 39.247 22.1647 39.3882 23.2941C40.5176 23.2941 41.9294 21.8824 42.0706 20.6118ZM24.7059 8.75295C25.8353 8.75295 27.5294 7.05883 27.3882 6.0706C26.2588 5.92942 24.7059 7.48236 24.7059 8.75295ZM29.2235 32.4706C29.647 32.1882 30.0706 32.0471 30.3529 31.9059C30.7765 31.7647 31.2 31.7647 31.6235 31.6235C31.4823 30.7765 31.9059 29.9294 32.3294 29.2235C31.3412 30.3529 30.2118 31.3412 29.2235 32.4706ZM34.0235 33.0353C34.8706 33.4588 35.5765 33.4588 36.4235 33.0353C35.4353 32.6118 34.7294 32.6118 34.0235 33.0353ZM36.4235 15.1059C35.5765 14.6824 34.8706 14.6824 34.0235 15.1059C34.8706 15.5294 35.5765 15.5294 36.4235 15.1059ZM14.9647 11.7177C14.5412 12.4235 14.5412 13.1294 14.9647 13.9765C15.5294 13.4118 15.5294 12.2824 14.9647 11.7177ZM13.9765 33.0353C13.1294 32.6118 12.2823 32.6118 11.7176 33.0353C12.4235 33.4588 13.1294 33.4588 13.9765 33.0353ZM33.0353 11.7177C32.6118 12.5647 32.6118 13.2706 33.0353 13.9765C33.4588 13.2706 33.4588 12.5647 33.0353 11.7177ZM14.9647 36.2824C15.3882 35.4353 15.3882 34.4471 14.9647 34.0235C14.5412 34.8706 14.6823 35.5765 14.9647 36.2824ZM33.0353 34.1647C32.6118 34.5882 32.6118 35.8588 33.0353 36.2824C33.3176 35.5765 33.3176 34.8706 33.0353 34.1647ZM11.7176 14.9647C12.4235 15.3882 13.2706 15.3882 13.8353 14.9647C13.4118 14.5412 12.4235 14.5412 11.7176 14.9647Z" fill="#D4A870"/>
<path d="M12.1411 11.8588C11.4352 12.2824 10.8705 12.1412 10.447 12C8.89406 11.5765 7.76465 10.0235 7.76465 8.47059C7.76465 7.90589 7.90582 7.90589 8.47053 7.76471C10.0235 7.76471 11.2941 8.47059 11.8588 9.88236C11.9999 10.4471 11.9999 11.1529 12.1411 11.8588ZM9.03524 9.17647C9.31759 10.0235 10.0235 10.7294 10.7294 10.8706C10.7294 10.0235 9.8823 9.17647 9.03524 9.17647Z" fill="#D4A870"/>
<path d="M11.8588 36C12.4235 38.2588 10.5882 40.3765 8.32942 40.2353C7.76471 40.2353 7.62354 40.0941 7.62354 39.5294C7.62354 37.6941 9.45883 35.5765 11.8588 36ZM9.0353 38.9647C10.0235 38.6824 10.7294 37.9765 10.7294 37.2706C10.0235 37.4118 9.17648 38.1177 9.0353 38.9647Z" fill="#D4A870"/>
<path d="M36.1412 12C35.5765 9.0353 38.1176 7.48236 40.0941 7.76471C40.0941 7.90588 40.2353 8.18824 40.2353 8.32941C40.2353 10.3059 38.5412 12.1412 36.5647 12C36.4235 12.1412 36.2823 12 36.1412 12ZM38.9647 9.0353C38.1176 9.17647 37.4118 10.0235 37.2706 10.7294C37.9765 10.7294 38.8235 10.0235 38.9647 9.0353Z" fill="#D4A870"/>
<path d="M36 36C36.9882 35.8588 37.6941 36 38.4 36.4236C39.5294 37.1294 40.2353 38.2588 40.2353 39.6706C40.2353 40.0941 39.9529 40.3765 39.5294 40.3765C37.9765 40.3765 36.4235 39.3883 36 37.9765C36 37.2706 36 36.5647 36 36ZM38.9647 38.9647C38.6824 37.9765 37.9765 37.4118 37.2706 37.2706C37.4118 38.1177 37.9765 38.6824 38.9647 38.9647Z" fill="#D4A870"/>
<path d="M44.7529 25.2706C43.7647 25.2706 43.0588 24.9882 42.6353 24.4235C42.2117 24 42.2117 23.7176 42.6353 23.2941C43.7647 22.3059 45.6 22.3059 46.5882 23.2941C46.8706 23.5764 46.8706 24 46.5882 24.2823C46.0235 25.1294 45.3176 25.2706 44.7529 25.2706ZM44.1882 24C44.047 24 44.047 24 44.1882 24C44.047 24.1412 44.1882 24.1412 44.1882 24C44.4706 24.1412 44.7529 24.1412 44.8941 24.1412H45.0353C44.8941 24.1412 44.8941 24.1412 44.8941 24C44.6117 24 44.3294 24 44.1882 24Z" fill="#D4A870"/>
<path d="M3.81172 25.2706C2.6823 25.2706 1.97642 24.9883 1.41172 24.4235C1.12936 24.1412 1.12936 23.8588 1.41172 23.4353C2.39995 22.3059 4.5176 22.3059 5.50583 23.4353C5.78819 23.7177 5.78819 24.1412 5.50583 24.4235C4.94113 24.9883 4.23525 25.2706 3.81172 25.2706ZM3.10583 24.1412C3.38819 24.1412 3.52936 24.1412 3.81172 24.1412H3.95289C3.81172 24.1412 3.81172 24.1412 3.81172 24C3.52936 24 3.38819 24 3.10583 24.1412C3.10583 24 3.10583 24 3.10583 24.1412Z" fill="#D4A870"/>
<path d="M22.7293 3.52941C22.5882 2.82353 22.8705 2.11764 23.4352 1.55294C23.7176 1.12941 24.1411 1.12941 24.4235 1.55294C25.4117 2.54117 25.4117 4.51764 24.4235 5.50588C23.9999 5.92941 23.7176 5.92941 23.4352 5.50588C23.0117 4.94117 22.7293 4.23529 22.7293 3.52941ZM23.9999 3.10588C23.9999 3.38823 23.9999 3.67058 23.9999 3.95294C23.9999 3.95294 23.9999 3.95294 24.1411 3.95294C23.9999 3.67058 23.9999 3.38823 23.9999 3.10588Z" fill="#D4A870"/>
<path d="M24.2823 46.7294C24.1411 46.7294 23.8588 46.7294 23.7176 46.7294C22.447 45.8823 22.447 43.4823 23.2941 42.6353C23.7176 42.2117 24 42.2117 24.5647 42.6353C25.5529 43.6235 25.5529 45.8823 24.2823 46.7294ZM24.1411 44.1882H24C24 44.4706 24 44.7529 24 45.0353H24.1411C24.1411 44.7529 24.1411 44.4706 24.1411 44.1882Z" fill="#D4A870"/>
<path d="M29.2235 13.8353H29.0823V13.6941C29.0823 13.8353 29.2235 13.8353 29.2235 13.8353Z" fill="#DFBF96"/>
<path d="M15.6706 18.6353C15.6706 18.7765 15.6706 18.7765 15.5294 18.9177C15.5294 18.7765 15.6706 18.7765 15.6706 18.6353Z" fill="#EAD5BB"/>
<path d="M18.7764 15.8118C18.6352 15.6706 18.6352 15.6706 18.7764 15.8118V15.8118Z" fill="#ECDAC3"/>
<path d="M15.6705 29.3647V29.2235C15.6705 29.2235 15.6705 29.2235 15.8117 29.2235C15.6705 29.2235 15.6705 29.3647 15.6705 29.3647Z" fill="#ECDAC3"/>
<path d="M44.8941 24.1412C44.6118 24.1412 44.4706 24.1412 44.1882 24.1412C44.1882 24.1412 44.1882 24.1412 44.1882 24C44.3294 24 44.6118 24 44.8941 24.1412C44.8941 24 44.8941 24 44.8941 24.1412Z" fill="#FAF6F0"/>
<path d="M44.894 24.1412C44.894 24 44.894 24 44.894 24.1412C44.894 24 45.0352 24 45.0352 24.1412H44.894Z" fill="#EAD5BB"/>
<path d="M44.1882 24C44.047 24.1412 44.1882 24.1412 44.1882 24C44.047 24 44.047 24 44.1882 24Z" fill="#E7D0B1"/>
<path d="M3.81172 24.1412C3.52936 24.1412 3.38819 24.1412 3.10583 24.1412C3.10583 24.1412 3.10583 24.1412 3.10583 24C3.38819 24 3.52936 24 3.81172 24.1412C3.81172 24 3.81172 24 3.81172 24.1412Z" fill="#FAF6F0"/>
<path d="M3.81177 24.1412C3.81177 24 3.81177 24 3.81177 24.1412C3.81177 24 3.95294 24 3.95294 24.1412H3.81177Z" fill="#EAD5BB"/>
<path d="M23.9999 3.1059C23.9999 3.38825 23.9999 3.6706 23.9999 3.95295C23.9999 3.95295 23.9999 3.95295 23.8588 3.95295C23.9999 3.6706 23.9999 3.38825 23.9999 3.1059Z" fill="#FAF6F0"/>
<path d="M24.1412 44.1882C24.1412 44.4706 24.1412 44.7529 24.1412 45.0353H24C24 44.7529 24 44.4706 24 44.1882C24 44.1882 24 44.1882 24.1412 44.1882Z" fill="#FAF6F0"/>
<path d="M26.5412 22.5882C25.9765 23.8588 25.4118 24.9882 24.8471 26.2588C24.5647 26.8235 24.4235 27.2471 24 27.9529C23.0118 26.1176 22.0235 24.4235 21.1765 22.5882C21.1765 22.5882 21.1765 22.5882 21.0353 22.5882C21.1765 24.8471 21.3176 27.1059 21.4588 29.5059C20.8941 29.5059 20.4706 29.5059 19.9059 29.5059C19.9059 26.2588 19.9059 23.0118 19.9059 19.7647C20.1882 19.7647 20.3294 19.7647 20.6118 19.7647C20.8941 19.7647 21.0353 19.7647 21.3176 19.7647C22.3059 21.6 23.2941 23.2941 24.1412 25.1294C24.9882 23.2941 25.8353 21.6 26.6824 19.7647C27.2471 19.7647 27.6706 19.7647 28.2353 19.7647C28.2353 23.0118 28.2353 26.2588 28.2353 29.5059C27.6706 29.5059 27.2471 29.5059 26.6824 29.5059C26.5412 27.1059 26.5412 24.8471 26.5412 22.5882C26.6824 22.5882 26.6824 22.4471 26.6824 22.4471C26.5412 22.4471 26.5412 22.4471 26.5412 22.5882Z" fill="#D3A86F"/>
</svg>
