<svg width="803" height="300" viewBox="0 0 803 300" fill="none" xmlns="http://www.w3.org/2000/svg">
<path d="M307.7 121.189C309.658 122.98 311.911 124.001 314.458 124.253C316.903 124.497 319.122 123.858 321.114 122.337C323.526 120.496 325.439 117.84 326.851 114.369C329.767 107.2 333.154 96.8237 337.012 83.2414C337.743 80.6779 339.693 78.9045 342.862 77.9212C349.981 75.7275 357.255 75.0593 364.685 75.9166C366.669 76.1435 367.362 77.2109 366.765 79.1188C363.361 89.9863 360.079 100.925 356.919 111.936C355.994 115.146 355.713 117.5 356.074 118.996C356.604 121.156 358.028 122.543 360.348 123.156C361.819 123.543 363.656 123.761 365.858 123.812C369.262 123.887 372.01 122.749 374.103 120.395C375.397 118.933 376.381 116.39 377.053 112.768C377.851 108.506 378.793 104.216 379.877 99.8957C379.988 99.4462 380.217 99.0329 380.54 98.6968C380.862 98.3608 381.268 98.1135 381.718 97.9794C387.794 96.1807 394.048 95.4873 400.477 95.8991C402.528 96.0252 403.965 96.4833 404.789 97.2734C405.873 98.324 406.075 99.736 405.394 101.509C404.739 103.199 404.398 104.085 404.373 104.17C403.095 108.767 402.377 113.449 402.217 118.214C402.133 120.551 402.347 122.366 402.86 123.66C404.079 126.745 406.399 126.93 409.819 124.215C418.829 117.096 421.536 108.246 417.938 97.6642C417.106 95.21 415.463 93.2894 413.009 91.9026C411.278 90.9193 408.945 90.3351 406.012 90.1502C399.658 89.7552 393.396 90.3561 387.227 91.953C384.941 92.5414 383.323 92.7179 382.373 92.4826C380.44 92.0035 379.293 90.5537 378.931 88.1331C378.654 86.242 378.944 84.5063 379.801 82.9262C380.465 81.6907 381.718 80.6233 383.558 79.724C398.712 72.3025 414.207 71.9789 430.041 78.7532C436.538 81.5352 441.354 85.9226 444.489 91.9153C447.364 97.3952 448.099 103.308 446.696 109.654C443.62 123.572 436.244 133.141 424.57 138.361C417.476 141.529 410.647 142.912 404.083 142.508C397.3 142.097 390.446 139.693 383.52 135.297C383.32 135.168 383.088 135.098 382.85 135.093C382.611 135.089 382.377 135.151 382.171 135.272C377.868 137.819 373.577 139.39 369.299 139.987C365.097 140.575 361.483 140.046 358.457 138.398C355.011 136.533 352.536 133.482 351.031 129.246C350.973 129.078 350.871 128.928 350.736 128.812C350.602 128.695 350.44 128.616 350.265 128.581C350.091 128.547 349.91 128.559 349.742 128.616C349.573 128.672 349.422 128.772 349.304 128.905C340.034 139.294 329.015 143.227 316.248 140.706C311.507 139.773 307.893 138.302 305.405 136.293C302.153 133.671 300.186 130.006 299.505 125.299C299.425 124.744 299.16 124.231 298.753 123.844C298.346 123.458 297.82 123.22 297.261 123.169C294.799 122.942 292.319 122.572 289.823 122.059C286.881 121.463 284.805 120.626 283.595 119.55C282.309 118.416 281.473 116.966 281.086 115.201C280.817 113.991 280.922 112.402 281.401 110.435C286.755 88.2381 292.815 65.318 299.581 41.6751C300.01 40.179 300.955 39.1662 302.418 38.6367C309.385 36.1405 316.555 36.9894 323.926 41.1834C324.444 41.4767 324.851 41.9326 325.086 42.4814C325.32 43.0301 325.369 43.6414 325.224 44.2217L306.767 118.126C306.63 118.671 306.644 119.244 306.809 119.783C306.973 120.323 307.281 120.809 307.7 121.189Z" fill="#143535"/>
<path d="M359.013 65.8026C365.846 64.1115 370.216 58.0176 368.775 52.1914C367.333 46.3652 360.624 43.013 353.791 44.704C346.958 46.3951 342.587 52.4891 344.029 58.3153C345.471 64.1415 352.179 67.4937 359.013 65.8026Z" fill="#143535"/>
<path d="M34.1211 60.3215C32.2973 59.3045 31.4904 57.758 31.7005 55.682C32.1712 50.9501 34.2514 47.6428 37.9411 45.7601C38.4873 45.483 39.0925 45.3408 39.7064 45.3452C40.3204 45.3495 40.9254 45.5004 41.4712 45.7852C49.666 50.0717 57.7389 49.7692 65.6899 44.8775C65.9653 44.7082 66.2877 44.6304 66.6113 44.6553C66.935 44.6802 67.2434 44.8065 67.4927 45.0162C71.7456 48.5294 72.4474 51.9335 69.5981 55.2282C68.2534 56.7747 65.942 58.5229 62.6641 60.4728C53.5448 65.8855 44.0305 65.8351 34.1211 60.3215Z" fill="#143535"/>
<path d="M116.296 130.216C116.17 130.005 115.996 129.825 115.788 129.693C115.58 129.561 115.344 129.479 115.099 129.455C114.853 129.43 114.606 129.463 114.376 129.552C114.146 129.64 113.94 129.782 113.774 129.964C103.974 140.765 92.3838 144.105 79.0032 139.987C75.5152 138.911 72.8046 137.466 70.8715 135.65C68.3837 133.314 66.8582 130.477 66.2951 127.14C66.0345 125.636 65.3663 125.426 64.2905 126.51C51.7672 139.168 37.3613 143.521 21.0726 139.571C16.5928 138.487 13.172 136.839 10.8102 134.629C8.80987 132.763 7.28019 130.536 6.22117 127.947C5.33025 125.77 4.92682 123.173 5.01087 120.156C5.42271 105.952 11.7138 94.647 23.884 86.2421C32.9277 79.9888 42.6185 76.2445 52.9565 75.009C64.8662 73.5886 75.5488 76.4462 85.0043 83.5819C87.7779 85.6748 88.299 88.2592 86.5676 91.3354C85.0043 94.109 83.336 95.9833 81.5625 96.9583C79.4109 98.1266 77.0995 97.8618 74.6285 96.164C72.334 94.5923 68.4677 93.3316 63.0298 92.3818C54.8602 90.9446 47.8758 93.071 42.0764 98.7611C38.1513 102.602 35.1928 107.082 33.2008 112.201C32.083 115.05 31.8561 117.975 32.52 120.975C33.2765 124.396 35.2096 125.182 38.3194 123.333C40.8157 121.854 42.858 119.975 44.4466 117.697C44.5726 117.504 45.9006 115.134 48.4305 110.587C50.1451 107.494 51.7882 104.363 53.3599 101.194C53.5792 100.757 53.8989 100.377 54.2932 100.086C54.6874 99.7943 55.1452 99.5997 55.6293 99.5175C62.1599 98.4501 68.287 99.526 74.0107 102.745C76.2464 104.014 76.5616 105.649 74.9563 107.649C72.2499 111.028 71.401 114.6 72.4096 118.366C72.9979 120.534 74.1746 122.114 75.9397 123.106C77.8223 124.165 79.932 124.509 82.2685 124.14C87.1938 123.366 90.5768 120.584 92.4174 115.794C97.4183 102.758 100.944 92.2768 102.995 84.351C103.718 81.5522 105.105 79.7073 107.155 78.8163C114.627 75.5553 122.032 74.5256 129.369 75.7275C132.067 76.173 133.03 77.7111 132.257 80.3419C128.769 92.1675 125.264 103.85 121.742 115.39C120.095 120.778 122.066 123.703 127.655 124.165C131.202 124.451 134.232 123.682 136.745 121.858C138.518 120.572 140.119 118.143 141.548 114.571C145.734 104.09 149.386 93.4745 152.504 82.7247C152.991 81.0269 154.042 79.8249 155.656 79.1189C163.943 75.4712 172.394 74.3912 181.009 75.8788C181.218 75.9159 181.417 75.997 181.592 76.1167C181.768 76.2363 181.916 76.3919 182.027 76.5731C182.138 76.7542 182.209 76.9568 182.235 77.1675C182.262 77.3782 182.244 77.5921 182.182 77.7952L169.65 118.239C169.028 120.24 169.65 121.702 171.516 122.627C177.643 125.678 182.564 125.152 186.279 121.051C187.901 119.252 189.784 115.386 191.927 109.452C195.138 100.543 197.693 92.4365 199.592 85.1326C200.374 82.1237 201.891 79.9636 204.144 78.6524C205.278 77.9969 207.632 77.2447 211.204 76.3958C216.49 75.1434 221.874 74.9585 227.354 75.841C229.455 76.1772 230.199 77.3623 229.585 79.3963L217.936 117.798C217.757 118.382 217.756 119.006 217.933 119.588C218.111 120.17 218.459 120.684 218.932 121.063C225.656 126.459 231.396 125.724 236.154 118.857C237.246 117.285 238.288 115.062 239.28 112.188C242.802 102.01 246.223 91.9027 249.542 81.8673C249.786 81.1274 250.287 80.5008 250.954 80.1023C259.048 75.2611 267.752 73.9709 277.064 76.2319C277.267 76.2817 277.457 76.3715 277.624 76.4961C277.792 76.6207 277.932 76.7775 278.038 76.9573C278.144 77.137 278.213 77.3361 278.24 77.5428C278.268 77.7495 278.254 77.9596 278.199 78.1608C274.812 90.6253 270.937 102.985 266.575 115.239C265.634 117.87 264.306 120.849 262.591 124.178C260.86 127.531 259.036 130.208 257.119 132.208C249.681 139.949 240.137 142.979 228.488 141.298C221.806 140.34 216.776 137.012 213.397 131.313C213.269 131.095 213.093 130.909 212.882 130.77C212.671 130.631 212.43 130.542 212.179 130.51C211.928 130.478 211.674 130.505 211.434 130.587C211.195 130.67 210.978 130.806 210.8 130.985C204.379 137.382 196.625 140.983 187.54 141.79C179.639 142.488 172.726 140.037 166.801 134.44C166.733 134.373 166.099 133.583 164.897 132.07C163.813 130.7 162.657 130.632 161.43 131.868C160.119 133.213 159.421 133.915 159.337 133.973C153.344 138.579 146.675 141.118 139.329 141.588C134.438 141.908 130.126 141.197 126.394 139.458C122.116 137.474 118.75 134.394 116.296 130.216Z" fill="#143535"/>
<path d="M90.1864 172.649C96.9664 170.679 101.102 164.399 99.4237 158.622C97.7453 152.845 90.8885 149.759 84.1085 151.728C77.3285 153.698 73.1929 159.978 74.8712 165.755C76.5496 171.532 83.4065 174.619 90.1864 172.649Z" fill="#143535"/>
<path d="M327.78 224.465C327.934 224.378 328.057 224.238 328.15 224.045C331.07 218.005 335.687 214.615 342 213.875C345.407 213.475 348.117 214.368 350.13 216.555C351.537 218.075 352.49 220.478 352.99 223.765C355.177 238.051 350.827 249.735 339.94 258.815C335.994 262.101 331.204 263.335 325.57 262.515C324.59 262.368 323.21 262.348 321.43 262.455C318.27 262.648 316.21 261.121 315.25 257.875C313.95 253.475 313.67 248.748 314.41 243.695C314.73 241.535 314.894 240.441 314.9 240.415C317.007 223.495 317.707 209.148 317 197.375C316.694 192.235 318.564 189.588 322.61 189.435C324.67 189.348 326.297 189.875 327.49 191.015C328.73 192.195 329.264 193.811 329.09 195.865C329.01 196.818 328.97 197.325 328.97 197.385C328.61 206.291 328.07 215.188 327.35 224.075C327.317 224.515 327.46 224.645 327.78 224.465ZM326.66 251.385C327.307 252.065 327.844 252.441 328.27 252.515C333.844 253.495 337.504 251.365 339.25 246.125C341.45 239.531 342.247 233.608 341.64 228.355C341.26 225.081 339.737 224.451 337.07 226.465C329.37 232.265 325.774 240.275 326.28 250.495C326.299 250.83 326.434 251.145 326.66 251.385Z" fill="#D3A76E"/>
<path d="M418.64 223.435C421.84 219.828 425.6 217.081 429.92 215.195C432.76 213.961 435.217 213.531 437.29 213.905C440.357 214.458 442.344 216.448 443.25 219.875C444.11 223.135 444.104 226.901 443.23 231.175C442.044 236.955 441.034 242.768 440.2 248.615C440.007 249.935 440.27 250.475 440.99 250.235C441.244 250.148 441.56 249.881 441.94 249.435C442.5 248.768 443.19 248.325 444.01 248.105C444.81 247.885 445.54 248.038 446.2 248.565C447.287 249.431 447.627 250.561 447.22 251.955C447.08 252.441 446.65 253.438 445.93 254.945C444.49 257.985 442.297 260.131 439.35 261.385C436.864 262.445 434.597 262.638 432.55 261.965C429.804 261.058 428.514 258.695 428.68 254.875C429.16 243.841 429.954 235.945 431.06 231.185C432.854 223.485 430.914 222.211 425.24 227.365C420.5 231.671 418.004 236.508 417.75 241.875C417.544 246.341 417.074 250.781 416.34 255.195C415.807 258.381 414.247 260.591 411.66 261.825C409.9 262.665 408.257 262.841 406.73 262.355C404.65 261.688 403.81 259.858 404.21 256.865C406.877 236.651 407.76 216.361 406.86 195.995C406.774 194.061 407.117 192.581 407.89 191.555C409.37 189.588 411.49 188.861 414.25 189.375C417.177 189.921 418.76 191.921 419 195.375C419.28 199.361 419.06 208.675 418.34 223.315C418.32 223.641 418.42 223.681 418.64 223.435Z" fill="#D3A76E"/>
<path d="M25.0502 211.295C24.8435 210.655 24.6402 210.655 24.4402 211.295C20.0402 225.721 17.0802 240.435 15.5602 255.435C15.2002 258.995 13.5802 260.908 10.7002 261.175C9.31354 261.301 8.11687 260.931 7.1102 260.065C6.42354 259.465 5.87687 258.738 5.47021 257.885C5.15021 257.218 4.99354 256.351 5.0002 255.285C5.05354 235.811 9.82354 217.671 19.3102 200.865C20.7035 198.385 22.1035 196.798 23.5102 196.105C25.9902 194.865 28.3835 195.641 30.6902 198.435C31.6302 199.575 32.4802 201.181 33.2402 203.255C36.5469 212.215 38.8835 221.421 40.2502 230.875C40.4235 232.081 40.6735 232.081 41.0002 230.875C43.5269 221.501 46.7135 212.355 50.5602 203.435C51.2335 201.875 52.4469 200.161 54.2002 198.295C55.7269 196.661 57.1635 195.741 58.5102 195.535C60.5502 195.215 62.2769 196.181 63.6902 198.435C66.3902 202.761 68.4002 207.278 69.7202 211.985C70.4735 214.658 71.3335 219.485 72.3002 226.465C73.7935 237.245 74.6102 248.005 74.7502 258.745C74.7702 260.625 73.8569 261.751 72.0102 262.125C68.1035 262.918 65.4869 261.981 64.1602 259.315C63.5935 258.175 63.2802 255.835 63.2202 252.295C62.9802 238.668 61.3002 225.211 58.1802 211.925C57.9669 211.018 57.7102 211.005 57.4102 211.885C52.7169 225.465 48.8635 239.415 45.8502 253.735C45.1435 257.068 44.6735 258.971 44.4402 259.445C43.3669 261.618 41.3869 262.595 38.5002 262.375C36.4935 262.221 35.1102 261.351 34.3502 259.765C34.0035 259.045 33.7602 257.585 33.6202 255.385C32.6669 240.205 29.8102 225.508 25.0502 211.295Z" fill="#D3A76E"/>
<path d="M173.14 250.175C173.834 249.395 174.614 248.728 175.48 248.175C176.494 247.521 177.437 247.378 178.31 247.745C179.57 248.278 180.014 249.481 179.64 251.355C178.76 255.828 176.38 259.085 172.5 261.125C170.994 261.918 169.377 262.281 167.65 262.215C165.897 262.155 164.394 261.638 163.14 260.665C161.14 259.118 160.354 256.901 160.78 254.015C160.994 252.541 161.104 251.775 161.11 251.715C161.924 243.475 163.077 235.281 164.57 227.135C164.904 225.308 164.407 224.361 163.08 224.295C162.42 224.261 161.617 224.508 160.67 225.035C157.25 226.941 154.607 229.518 152.74 232.765C151.554 234.838 150.667 238.038 150.08 242.365C149.467 246.865 148.844 251.365 148.21 255.865C147.864 258.371 146.787 260.228 144.98 261.435C143.227 262.608 141.32 262.971 139.26 262.525C137.2 262.078 136.077 260.738 135.89 258.505C135.817 257.638 136.044 256.068 136.57 253.795C138.73 244.375 139.297 234.895 138.27 225.355C138.177 224.461 137.82 224.358 137.2 225.045L133.62 229.035C133.414 229.26 133.108 229.406 132.76 229.445C130.62 229.685 129.477 228.895 129.33 227.075C129.25 226.121 129.494 224.981 130.06 223.655C131.854 219.428 134.914 216.325 139.24 214.345C142.907 212.665 145.617 213.235 147.37 216.055C147.857 216.841 148.3 218.108 148.7 219.855C149.007 221.235 149.307 222.555 149.6 223.815C149.72 224.321 149.954 224.381 150.3 223.995C153.587 220.408 157.254 217.688 161.3 215.835C164.94 214.168 168.157 213.775 170.95 214.655C173.924 215.581 175.71 217.698 176.31 221.005C176.59 222.571 176.44 225.135 175.86 228.695C174.707 235.795 173.71 242.915 172.87 250.055C172.837 250.381 172.927 250.421 173.14 250.175Z" fill="#D3A76E"/>
<path d="M247.56 254.565C249.34 254.591 250.79 253.815 251.91 252.235C252.099 251.968 252.197 251.642 252.19 251.305C252.09 247.745 250.334 245.301 246.92 243.975C242.607 242.301 238.8 239.851 235.5 236.625C232.947 234.125 231.8 231.178 232.06 227.785C232.274 224.971 233.437 222.288 235.55 219.735C240.03 214.321 246.264 212.535 254.25 214.375C256.324 214.855 258.12 215.691 259.64 216.885C261.354 218.238 262.394 219.815 262.76 221.615C263.3 224.248 261.97 226.268 258.77 227.675C256.024 228.881 254.057 228.438 252.87 226.345C251.71 224.305 251.12 223.271 251.1 223.245C248.927 220.871 246.454 220.908 243.68 223.355C243.422 223.575 243.252 223.865 243.2 224.175C242.927 225.788 243.547 227.168 245.06 228.315C247.134 229.875 249.117 231.201 251.01 232.295C254.324 234.201 256.324 235.471 257.01 236.105C259.49 238.411 261.09 241.205 261.81 244.485C262.504 247.645 262.077 250.638 260.53 253.465C257.99 258.111 253.647 260.998 247.5 262.125C241.1 263.298 235.974 261.911 232.12 257.965C230.167 255.965 229.07 253.815 228.83 251.515C228.477 248.215 230.137 245.938 233.81 244.685C236.77 243.678 238.657 244.791 239.47 248.025C240.55 252.318 243.247 254.498 247.56 254.565Z" fill="#D3A76E"/>
<path d="M207.18 253.115C205.147 256.728 202.19 259.398 198.31 261.125C195.564 262.345 193.124 262.808 190.99 262.515C187.904 262.101 185.887 260.158 184.94 256.685C181.047 242.478 183.9 230.515 193.5 220.795C196.867 217.388 200.027 215.251 202.98 214.385C206.954 213.225 211.014 213.838 215.16 216.225C217.994 217.851 219.757 220.078 220.45 222.905C220.77 224.205 220.644 226.848 220.07 230.835C219.117 237.461 219.084 244.058 219.97 250.625C220.097 251.591 220.417 251.658 220.93 250.825C221.737 249.511 222.837 248.538 224.23 247.905C225.79 247.198 226.89 247.411 227.53 248.545C227.957 249.291 228.07 250.205 227.87 251.285C227.55 252.991 226.657 254.751 225.19 256.565C223.184 259.038 221.184 260.788 219.19 261.815C217.797 262.528 216.334 262.698 214.8 262.325C213.494 262.011 212.347 261.241 211.36 260.015C209.827 258.115 208.874 255.895 208.5 253.355C208.294 251.995 207.854 251.915 207.18 253.115ZM196.54 250.835C196.715 250.952 196.918 251.019 197.128 251.028C197.338 251.036 197.546 250.987 197.73 250.885C203.417 247.625 206.77 242.968 207.79 236.915C208.284 234.021 208.534 232.551 208.54 232.505C208.9 230.938 209.297 229.265 209.73 227.485C209.798 227.213 209.798 226.93 209.732 226.658C209.666 226.386 209.535 226.135 209.35 225.925C206.63 222.878 203.89 222.335 201.13 224.295C199.49 225.461 198.364 226.738 197.75 228.125C195.144 234.025 194.107 240.445 194.64 247.385C194.76 248.905 195.394 250.055 196.54 250.835Z" fill="#D3A76E"/>
<path d="M291.46 252.505C291.3 252.011 291.087 251.985 290.82 252.425C288.987 255.445 286.664 257.901 283.85 259.795C281.097 261.641 278.504 262.531 276.07 262.465C272.79 262.378 270.287 260.578 268.56 257.065C267.714 255.331 267.184 253.351 266.97 251.125C265.864 239.631 269.06 229.485 276.56 220.685C280.654 215.891 285.537 213.655 291.21 213.975C295.07 214.195 298.21 215.371 300.63 217.505C303.584 220.105 304.667 223.681 303.88 228.235C303.327 231.481 303.047 233.135 303.04 233.195C302.527 238.755 302.567 244.318 303.16 249.885C303.36 251.751 304.1 251.538 305.38 249.245C305.767 248.558 306.27 247.971 306.89 247.485C308.264 246.405 309.454 246.511 310.46 247.805C311.047 248.545 311.274 249.501 311.14 250.675C310.56 255.775 307.95 259.361 303.31 261.435C297.49 264.041 293.884 262.321 292.49 256.275C292.19 254.981 291.847 253.725 291.46 252.505ZM279.34 250.535C280.607 251.088 281.694 251.098 282.6 250.565C282.707 250.505 283.447 249.851 284.82 248.605C287.994 245.725 290.01 242.138 290.87 237.845C291.51 234.671 292.28 231.271 293.18 227.645C293.283 227.239 293.27 226.813 293.145 226.414C293.02 226.015 292.786 225.659 292.47 225.385C288.604 222.011 285.377 222.108 282.79 225.675C281.217 227.861 280.037 230.678 279.25 234.125C278.164 238.911 277.95 244.055 278.61 249.555C278.638 249.768 278.72 249.971 278.848 250.143C278.976 250.315 279.145 250.45 279.34 250.535Z" fill="#D3A76E"/>
<path d="M122.1 250.665C122.64 249.505 123.567 248.535 124.88 247.755C126.153 246.995 127.32 246.855 128.38 247.335C129.407 247.801 129.97 248.665 130.07 249.925C130.13 250.745 129.903 251.665 129.39 252.685C127.283 256.838 124.14 259.811 119.96 261.605C117.673 262.578 115.68 262.658 113.98 261.845C111.893 260.845 110.627 258.941 110.18 256.135C109.987 254.921 109.747 253.881 109.46 253.015C109.22 252.275 108.877 252.225 108.43 252.865C105.583 256.965 101.973 259.745 97.6001 261.205C94.5801 262.218 91.9835 262.418 89.8101 261.805C86.7568 260.951 84.9868 258.558 84.5001 254.625C84.3068 253.065 84.4068 250.735 84.8001 247.635C85.7268 240.301 86.6268 232.965 87.5001 225.625C87.6135 224.685 87.3835 224.621 86.8101 225.435C86.0235 226.561 85.0635 227.505 83.9301 228.265C82.1901 229.431 80.9135 229.368 80.1001 228.075C79.6068 227.295 79.5368 226.305 79.8901 225.105C81.4168 219.945 84.6935 216.468 89.7201 214.675C91.0401 214.201 92.2435 214.115 93.3301 214.415C94.7568 214.801 95.7935 215.558 96.4401 216.685C98.5135 220.305 99.1501 224.481 98.3501 229.215C98.0235 231.155 97.8568 232.145 97.8501 232.185C97.0368 238.391 96.8368 244.628 97.2501 250.895C97.2537 250.954 97.2712 251.011 97.3012 251.061C97.3312 251.112 97.3729 251.155 97.4228 251.186C97.4727 251.217 97.5293 251.236 97.588 251.241C97.6466 251.246 97.7057 251.237 97.7601 251.215C105.013 248.321 108.867 243.041 109.32 235.375C109.553 231.461 110.177 226.775 111.19 221.315C111.743 218.308 113.193 216.188 115.54 214.955C117.16 214.108 118.673 213.948 120.08 214.475C121.873 215.141 122.68 216.775 122.5 219.375C122.247 223.048 121.853 226.401 121.32 229.435C120.413 234.561 119.943 237.888 119.91 239.415C119.837 243.101 120.123 246.795 120.77 250.495C121.03 251.968 121.473 252.025 122.1 250.665Z" fill="#D3A76E"/>
<path d="M381.32 253.155C381.16 252.275 380.81 252.191 380.27 252.905C377.603 256.451 374.403 259.128 370.67 260.935C367.91 262.268 365.387 262.605 363.1 261.945C360.113 261.091 358.183 258.965 357.31 255.565C355.21 247.358 355.717 239.435 358.83 231.795C361.243 225.855 364.057 221.475 367.27 218.655C371.517 214.921 376.987 213.541 383.68 214.515C388.94 215.281 392.047 218.068 393 222.875C393.313 224.441 393.313 226.305 393 228.465C392.493 232.005 392.24 233.791 392.24 233.825C391.827 239.218 392.017 244.698 392.81 250.265C392.957 251.291 393.317 251.371 393.89 250.505C395.297 248.398 396.893 247.355 398.68 247.375C399.887 247.381 400.553 247.988 400.68 249.195C400.92 251.555 400.517 253.505 399.47 255.045C397.377 258.145 394.95 260.401 392.19 261.815C391.023 262.408 389.747 262.585 388.36 262.345C387.22 262.145 386.167 261.541 385.2 260.535C383.12 258.355 381.827 255.895 381.32 253.155ZM382.37 225.905C380.57 224.491 378.947 223.648 377.5 223.375C375.1 222.915 373.243 223.875 371.93 226.255C368.083 233.235 366.82 240.985 368.14 249.505C368.353 250.878 369.117 251.341 370.43 250.895C373.697 249.768 376.197 247.758 377.93 244.865C378.777 243.451 379.69 240.528 380.67 236.095C381.37 232.928 382.183 229.791 383.11 226.685C383.137 226.602 383.142 226.517 383.124 226.44C383.106 226.363 383.066 226.298 383.01 226.255C382.943 226.201 382.87 226.158 382.79 226.125C382.59 226.045 382.45 225.971 382.37 225.905Z" fill="#D3A76E"/>
<path d="M646.572 0C646.969 0 647.367 0 647.765 0C648.826 0.349945 649.498 0.660123 649.781 0.930535C651.459 2.54903 652.837 4.39618 653.915 6.47199C656.312 11.1008 656.529 15.8489 654.565 20.7163C653.964 22.1996 653.252 23.6193 652.429 24.9753C651.363 26.741 650.339 27.924 649.357 28.5245C647.953 29.3834 646.52 29.3576 645.056 28.4469C644.166 27.8942 643.267 26.9279 642.36 25.548C637.481 18.1196 637.692 10.5103 642.993 2.72003C643.955 1.30434 645.148 0.397665 646.572 0ZM647.348 17.4654C647.414 17.4656 647.479 17.3907 647.54 17.2451C647.601 17.0995 647.657 16.8861 647.704 16.617C647.751 16.3479 647.788 16.0284 647.814 15.6767C647.84 15.325 647.853 14.948 647.854 14.5673C647.855 13.7985 647.804 13.061 647.711 12.5172C647.618 11.9734 647.491 11.6677 647.358 11.6675C647.292 11.6674 647.227 11.7422 647.166 11.8878C647.105 12.0334 647.049 12.2468 647.002 12.5159C646.955 12.785 646.918 13.1045 646.892 13.4562C646.866 13.8079 646.853 14.1849 646.852 14.5656C646.851 15.3344 646.902 16.0719 646.995 16.6157C647.088 17.1595 647.215 17.4652 647.348 17.4654Z" fill="#D3A76E"/>
<path d="M716.511 81.3333C724.826 80.029 731.861 82.1923 737.615 87.8232C738.653 88.8413 739.182 89.8096 739.202 90.7282C739.221 91.9252 738.643 93.0346 737.466 94.0567C728.602 101.74 718.799 102.712 708.058 96.9735C707.989 96.9369 707.912 96.9154 707.833 96.9105C707.755 96.9056 707.676 96.9174 707.603 96.945C707.529 96.9727 707.463 97.0156 707.408 97.0709C707.352 97.1262 707.31 97.1927 707.283 97.2658C705.426 102.272 706.209 106.722 709.633 110.615C710.301 111.375 710.647 112.26 710.671 113.27C710.814 118.881 712.248 124.102 714.972 128.934C716.96 132.469 719.479 135.513 722.529 138.066C727.305 142.063 732.932 144.528 739.41 145.463C739.488 145.475 739.567 145.455 739.63 145.408C739.694 145.361 739.737 145.291 739.75 145.212C741.91 132.853 748.815 124.462 760.467 120.04C763.262 118.978 766.207 118.455 769.301 118.471C770.908 118.479 772.117 118.774 772.928 119.354C773.719 119.923 774.26 120.696 774.55 121.675C774.741 122.319 774.789 123.223 774.693 124.389C773.779 135.289 768.581 143.677 759.101 149.555C759.053 149.585 759.014 149.628 758.987 149.678C758.96 149.727 758.946 149.783 758.947 149.84C758.947 149.897 758.962 149.952 758.99 150.002C759.018 150.051 759.058 150.092 759.107 150.122C768.838 156.027 774.063 164.69 774.783 176.111C775.002 179.571 773.311 181.311 769.713 181.33C767.144 181.346 763.98 180.672 760.222 179.308C748.722 175.129 741.944 166.961 739.888 154.804C739.867 154.675 739.797 154.559 739.692 154.481C739.587 154.403 739.456 154.369 739.327 154.387C731.668 155.361 725.309 158.493 720.251 163.781C714.493 169.802 711.383 176.932 710.922 185.172C710.818 187.037 710.218 188.618 709.12 189.914C708.48 190.67 708.156 191.053 708.148 191.065C705.531 194.68 705.173 198.756 707.074 203.294C707.089 203.33 707.112 203.362 707.141 203.389C707.169 203.416 707.203 203.437 707.24 203.451C707.277 203.464 707.316 203.47 707.355 203.468C707.394 203.465 707.433 203.455 707.468 203.437C717.234 198.176 726.45 198.506 735.116 204.427C736.826 205.596 737.915 206.696 738.384 207.726C739.176 209.475 738.659 211.193 736.834 212.879C731.02 218.256 724.124 220.264 716.147 218.904C716.113 218.898 716.077 218.9 716.044 218.91C716.011 218.92 715.98 218.939 715.956 218.963C715.931 218.988 715.913 219.018 715.902 219.052C715.892 219.085 715.89 219.12 715.896 219.155C717.316 227.279 715.214 234.296 709.591 240.205C708.088 241.784 706.511 242.171 704.861 241.368C704.002 240.955 703.28 240.374 702.696 239.626C695.255 230.098 694.492 220.332 700.405 210.326C700.423 210.295 700.433 210.261 700.436 210.225C700.438 210.189 700.433 210.154 700.42 210.12C700.406 210.087 700.386 210.057 700.36 210.033C700.334 210.009 700.302 209.991 700.268 209.98C695.234 208.33 690.533 209.107 686.167 212.313C685.24 212.989 684.111 213.368 682.779 213.452C672.602 214.08 664.41 218.198 658.203 225.805C654.501 230.347 652.323 235.741 651.671 241.989C651.663 242.071 651.686 242.153 651.734 242.219C651.783 242.285 651.854 242.331 651.934 242.346C667.645 245.631 676.583 255.416 678.746 271.7C679.029 273.828 678.534 275.404 677.261 276.43C676.434 277.102 675.157 277.409 673.431 277.349C662.134 276.959 653.548 271.849 647.675 262.019C647.637 261.957 647.585 261.905 647.521 261.869C647.458 261.834 647.387 261.815 647.314 261.815C647.241 261.815 647.168 261.834 647.104 261.869C647.04 261.905 646.986 261.957 646.947 262.019C641.59 270.839 633.941 275.884 624 277.152C621.641 277.45 620.166 277.558 619.573 277.474C618.325 277.299 617.353 276.667 616.657 275.577C616.167 274.81 615.939 273.764 615.971 272.44C616.217 262.868 620.069 255.046 627.525 248.974C631.855 245.442 636.886 243.263 642.616 242.436C642.698 242.424 642.771 242.381 642.82 242.316C642.869 242.251 642.89 242.17 642.879 242.09C641.749 233.779 638.121 226.923 631.993 221.523C626.087 216.317 619.204 213.607 611.342 213.392C610.049 213.357 608.974 212.941 608.115 212.146C603.963 208.32 599.306 207.475 594.145 209.611C594.081 209.638 594.023 209.678 593.976 209.729C593.928 209.78 593.892 209.84 593.869 209.906C593.847 209.972 593.839 210.042 593.845 210.111C593.851 210.181 593.872 210.248 593.906 210.308C599.593 220.266 599.165 229.412 592.624 237.747C591.347 239.37 590.434 240.36 589.886 240.718C588.931 241.334 587.875 241.452 586.718 241.07C585.931 240.811 585.132 240.225 584.32 239.31C579.159 233.512 577.125 226.658 578.218 218.749C578.224 218.708 578.22 218.665 578.207 218.626C578.194 218.586 578.172 218.55 578.142 218.521C578.113 218.491 578.077 218.469 578.037 218.456C577.997 218.442 577.955 218.439 577.914 218.445C571.559 219.363 565.819 218.202 560.693 214.961C558.55 213.605 557.154 212.515 556.506 211.692C555.452 210.352 555.318 208.871 556.106 207.248C556.591 206.254 557.512 205.254 558.868 204.248C567.561 197.806 576.8 197.41 586.587 203.061C586.62 203.081 586.657 203.093 586.695 203.098C586.732 203.102 586.771 203.099 586.807 203.087C586.843 203.076 586.876 203.057 586.904 203.032C586.932 203.007 586.954 202.976 586.969 202.942C589.255 197.752 588.52 193.046 584.762 188.823C584.133 188.119 583.797 187.128 583.754 185.852C583.734 185.212 583.724 184.88 583.724 184.856C583.255 178.231 581.264 172.494 577.753 167.647C572.277 160.087 564.751 155.633 555.175 154.285C555.074 154.271 554.972 154.296 554.889 154.355C554.807 154.414 554.751 154.502 554.734 154.601C552.527 166.814 545.759 175.039 534.429 179.279C531.586 180.344 528.752 180.994 525.929 181.229C524.032 181.388 522.579 181.134 521.568 180.466C520.105 179.499 519.459 177.948 519.63 175.813C520.533 164.487 525.748 155.949 535.276 150.199C535.333 150.166 535.379 150.119 535.412 150.062C535.445 150.006 535.462 149.941 535.463 149.876C535.463 149.81 535.447 149.745 535.415 149.686C535.384 149.628 535.338 149.579 535.282 149.543C525.822 143.538 520.616 134.984 519.666 123.882C519.407 120.843 520.455 119.06 522.809 118.531C523.939 118.273 525.692 118.372 528.07 118.829C542.45 121.609 551.368 130.368 554.823 145.105C554.852 145.222 554.922 145.325 555.021 145.394C555.12 145.464 555.24 145.494 555.36 145.481C560.562 144.9 565.236 143.176 569.384 140.309C572.541 138.13 575.289 135.293 577.628 131.797C581.059 126.679 583.103 120.951 583.76 114.612C583.907 113.176 584.181 112.069 584.583 111.29C584.941 110.594 585.366 109.937 585.859 109.321C586.635 108.347 587.098 107.728 587.249 107.466C589.206 104.082 589.287 100.419 587.494 96.4784C587.474 96.4375 587.447 96.4009 587.413 96.3709C587.38 96.3409 587.34 96.3182 587.298 96.3042C587.255 96.2902 587.21 96.2852 587.166 96.2895C587.122 96.2938 587.079 96.3074 587.04 96.3293C576.737 102.08 567.004 101.322 557.842 94.0567C556.287 92.8199 555.692 91.3784 556.058 89.732C556.301 88.6384 557.076 87.5011 558.384 86.3201C563.888 81.3572 570.521 79.5418 578.284 80.874C578.319 80.8799 578.355 80.8776 578.39 80.8672C578.424 80.8568 578.455 80.8386 578.481 80.8142C578.506 80.7897 578.526 80.7597 578.537 80.7265C578.548 80.6934 578.552 80.658 578.546 80.6235C577.536 72.7099 579.532 65.9078 584.535 60.2172C585.613 58.9924 586.671 58.2826 587.708 58.0877C589.224 57.8014 590.552 58.3581 591.693 59.7579C599.149 68.8685 599.97 78.6709 594.157 89.1654C594.137 89.1999 594.125 89.2379 594.12 89.2771C594.115 89.3162 594.118 89.3557 594.129 89.3931C594.139 89.4305 594.157 89.465 594.181 89.4945C594.206 89.5241 594.236 89.5481 594.27 89.565C597.789 91.3187 601.251 91.3625 604.655 89.6962C605.092 89.4815 605.904 88.9427 607.089 88.0797C607.622 87.694 608.17 87.3341 608.735 87.0001C609.26 86.6899 609.872 86.5149 610.572 86.4751C613.937 86.2644 617.026 85.7713 619.842 84.9958C625.584 83.4131 630.507 80.3312 634.611 75.7501C639.248 70.5725 642.01 64.5757 642.897 57.7596C642.908 57.6728 642.885 57.5848 642.831 57.5145C642.778 57.4442 642.698 57.3973 642.61 57.3839C634.315 56.0397 627.575 52.1148 622.389 45.609C618.126 40.2524 615.985 33.9951 615.965 26.8371C615.961 24.813 616.649 23.447 618.029 22.7392C618.872 22.3097 620.206 22.1844 622.031 22.3634C632.943 23.4132 641.296 28.6366 647.09 38.0334C647.107 38.059 647.129 38.0799 647.156 38.0942C647.183 38.1085 647.213 38.1157 647.244 38.1151C647.274 38.1145 647.304 38.1062 647.33 38.0908C647.357 38.0755 647.379 38.0537 647.394 38.0274C652.711 29.2231 660.37 24.0694 670.371 22.5662C672.837 22.1964 674.658 22.2123 675.835 22.6139C678.038 23.3655 679.009 25.2703 678.746 28.3284C678.591 30.1616 678.088 32.4959 677.237 35.3313C674.402 44.7798 668.417 51.3473 659.283 55.0336C656.881 56 654.423 56.7913 651.91 57.4077C651.831 57.4262 651.763 57.4746 651.72 57.5425C651.676 57.6104 651.661 57.6926 651.677 57.7716C654.743 73.1493 663.645 82.4587 678.382 85.6997C679.15 85.8667 680.299 85.98 681.83 86.0397C683.29 86.0993 684.437 86.3101 685.272 86.672C685.785 86.8947 686.741 87.521 688.141 88.551C689.414 89.4815 690.376 90.0999 691.028 90.4061C694.182 91.8735 697.375 91.778 700.608 90.1197C700.657 90.0943 700.7 90.0592 700.736 90.0166C700.771 89.9739 700.798 89.9245 700.814 89.8713C700.83 89.818 700.835 89.7619 700.83 89.7063C700.824 89.6506 700.807 89.5965 700.781 89.5471C695.269 79.4225 695.878 69.9481 702.606 61.1239C705.303 57.5926 708.056 57.5727 710.868 61.0643C715.556 66.898 717.354 73.5729 716.26 81.0887C716.255 81.1226 716.258 81.1572 716.269 81.1898C716.279 81.2223 716.298 81.2518 716.322 81.2757C716.347 81.2996 716.377 81.3174 716.41 81.3274C716.442 81.3374 716.477 81.3394 716.511 81.3333ZM628.36 31.7761C627.183 31.3109 625.98 30.9072 624.751 30.5652C624.685 30.5473 624.616 30.546 624.549 30.5616C624.483 30.5772 624.421 30.609 624.371 30.6543C624.32 30.6995 624.282 30.7566 624.26 30.8203C624.238 30.884 624.232 30.9522 624.244 31.0186C624.992 35.2617 626.759 38.9302 629.547 42.024C632.995 45.8456 637.341 48.2693 642.586 49.2953C642.621 49.3019 642.658 49.2999 642.692 49.2895C642.726 49.2792 642.756 49.2607 642.781 49.2359C642.806 49.211 642.824 49.1805 642.834 49.1472C642.844 49.1138 642.845 49.0786 642.837 49.0448C641.044 40.662 636.218 34.9058 628.36 31.7761ZM667.687 37.8783C668.896 35.723 669.741 33.4682 670.222 31.114C670.234 31.058 670.231 31 670.214 30.9453C670.198 30.8906 670.167 30.8411 670.126 30.8012C670.085 30.7614 670.035 30.7325 669.98 30.7173C669.924 30.7022 669.866 30.7011 669.811 30.7144C659.968 33.0129 653.984 39.0673 651.856 48.8778C651.849 48.9096 651.849 48.9427 651.858 48.9742C651.866 49.0057 651.883 49.0346 651.905 49.0582C651.927 49.0819 651.956 49.0996 651.987 49.1098C652.018 49.1199 652.051 49.1222 652.083 49.1164C659.046 47.7802 664.247 44.0342 667.687 37.8783ZM588.066 69.0991C585.804 73.549 585.708 78.1241 587.78 82.8246C588.003 83.3336 588.243 83.3415 588.502 82.8484C590.848 78.3468 590.834 73.7637 588.46 69.0991C588.329 68.8406 588.198 68.8406 588.066 69.0991ZM706.549 69.5405C704.211 74.1495 704.163 78.7147 706.406 83.2361C706.601 83.6298 706.802 83.6338 707.008 83.2481C709.323 78.9612 709.277 74.394 706.871 69.5465C706.764 69.3317 706.657 69.3298 706.549 69.5405ZM635.094 86.2485C643.358 90.9449 651.464 91.0026 659.414 86.4215C659.455 86.397 659.49 86.3628 659.516 86.3218C659.541 86.2809 659.556 86.2343 659.56 86.1863C659.563 86.1382 659.555 86.09 659.536 86.0457C659.517 86.0015 659.487 85.9626 659.45 85.9323C654.347 81.8483 650.327 76.8735 647.388 71.0079C647.297 70.825 647.205 70.825 647.114 71.0079C644.211 76.9172 640.196 81.8861 635.071 85.9144C635.045 85.9349 635.024 85.9614 635.011 85.9916C634.998 86.0218 634.992 86.0548 634.994 86.0877C634.997 86.1207 635.007 86.1525 635.024 86.1805C635.042 86.2085 635.066 86.2318 635.094 86.2485ZM581.022 90.3584C576.568 88.0956 571.985 88.0002 567.272 90.072C566.684 90.3305 566.68 90.595 567.26 90.8654C571.945 93.0486 576.532 92.969 581.022 90.6268C581.197 90.5393 581.197 90.4498 581.022 90.3584ZM728.017 90.5612C723.205 88.199 718.513 88.2249 713.94 90.6387C713.761 90.7302 713.765 90.8196 713.952 90.9071C718.469 93.1102 723.154 93.146 728.005 91.0145C728.331 90.8674 728.335 90.7163 728.017 90.5612ZM702.177 126.828C690.652 115.141 678.901 103.346 666.924 91.444C666.835 91.3549 666.718 91.3002 666.591 91.2893C666.465 91.2784 666.338 91.312 666.232 91.3843C661.937 94.3748 657.407 96.3571 652.643 97.3314C647.959 98.2898 643.549 98.1427 639.413 96.89C635.409 95.6732 631.663 93.8697 628.175 91.4798C628.103 91.4313 628.017 91.4096 627.931 91.4183C627.845 91.427 627.764 91.4657 627.704 91.5275L589.045 130.109C588.935 130.217 588.866 130.36 588.85 130.514C588.834 130.667 588.871 130.821 588.955 130.95C597.083 143.532 597.073 156.172 588.925 168.87C588.855 168.977 588.824 169.106 588.838 169.234C588.852 169.362 588.91 169.482 589.003 169.573L627.674 208.024C627.767 208.117 627.889 208.175 628.019 208.188C628.15 208.201 628.281 208.168 628.39 208.095C641.143 199.864 653.721 199.884 666.124 208.155C666.193 208.202 666.276 208.223 666.359 208.216C666.441 208.208 666.519 208.172 666.578 208.113L705.446 169.466C705.529 169.384 705.581 169.277 705.595 169.162C705.61 169.047 705.584 168.932 705.523 168.834C703.726 165.907 702.3 162.913 701.246 159.851C700.113 156.546 699.528 153.317 699.493 150.163C699.421 143.586 701.395 137.251 705.416 131.159C705.545 130.962 705.608 130.729 705.595 130.495C705.582 130.26 705.494 130.037 705.344 129.859C704.935 129.373 704.414 128.856 703.781 128.308C703.066 127.683 702.531 127.19 702.177 126.828ZM683.304 96.8005C689.666 103.322 696.095 109.794 702.588 116.217C703.137 116.761 703.318 116.66 703.131 115.912C703.012 115.435 702.789 114.958 702.463 114.481C699.397 109.959 698.081 104.963 698.514 99.4908C698.517 99.4549 698.512 99.4188 698.499 99.3851C698.486 99.3513 698.466 99.3207 698.44 99.2952C698.414 99.2697 698.383 99.25 698.348 99.2375C698.314 99.2249 698.277 99.2197 698.24 99.2223C692.943 99.5524 688.113 98.256 683.751 95.3332C683.743 95.3292 683.524 95.1562 683.095 94.8142C682.626 94.4404 682.019 94.1799 681.275 94.0328C680.655 93.9095 680.552 94.0865 680.965 94.5637C681.347 95.0051 681.725 95.3888 682.099 95.7149C682.751 96.2836 683.152 96.6455 683.304 96.8005ZM596.656 102.998C596.266 107.17 594.797 110.902 592.248 114.194C591.878 114.676 591.667 115.25 591.616 115.918C591.584 116.288 591.701 116.342 591.967 116.079L613.304 94.8082C613.865 94.2515 613.762 94.0626 612.994 94.2416C612.382 94.3807 611.823 94.6233 611.318 94.9693C607.123 97.8524 602.331 99.1428 596.942 98.8406C596.89 98.8375 596.838 98.8461 596.789 98.8657C596.741 98.8853 596.697 98.9155 596.661 98.9542C596.625 98.9928 596.598 99.039 596.582 99.0895C596.566 99.1399 596.56 99.1934 596.566 99.2462C596.741 100.515 596.771 101.765 596.656 102.998ZM540.448 133.223C537.099 129.863 533.147 127.717 528.589 126.787C528.523 126.773 528.454 126.776 528.388 126.796C528.323 126.816 528.264 126.852 528.217 126.901C528.169 126.949 528.135 127.009 528.116 127.075C528.098 127.14 528.097 127.209 528.112 127.276C530.403 136.74 536.395 142.775 546.091 145.379C546.17 145.401 546.254 145.402 546.334 145.381C546.414 145.361 546.487 145.32 546.546 145.263C546.606 145.206 546.649 145.135 546.673 145.056C546.697 144.977 546.699 144.893 546.681 144.813C545.643 140.208 543.565 136.344 540.448 133.223ZM750.977 137.034C749.366 139.444 748.284 142.16 747.732 145.183C747.726 145.212 747.727 145.242 747.737 145.27C747.746 145.298 747.762 145.324 747.784 145.345C747.806 145.365 747.832 145.38 747.862 145.389C747.891 145.397 747.922 145.398 747.952 145.391C757.858 143.045 764.012 136.959 766.414 127.133C766.427 127.08 766.426 127.026 766.413 126.974C766.399 126.922 766.373 126.874 766.336 126.835C766.299 126.796 766.253 126.767 766.202 126.75C766.151 126.733 766.097 126.729 766.044 126.739C762.565 127.379 759.501 128.719 756.852 130.759C754.542 132.541 752.583 134.633 750.977 137.034ZM568.793 150.193C574.313 153.048 579.099 156.952 583.151 161.902C583.208 161.972 583.281 162.027 583.365 162.063C583.448 162.098 583.538 162.112 583.628 162.105C583.718 162.097 583.805 162.067 583.881 162.019C583.956 161.97 584.019 161.903 584.064 161.825C588.546 153.784 588.432 145.719 583.724 137.631C583.707 137.601 583.683 137.576 583.654 137.558C583.624 137.54 583.591 137.529 583.557 137.527C583.523 137.524 583.489 137.53 583.457 137.544C583.426 137.558 583.399 137.58 583.378 137.607C579.357 142.749 574.498 146.737 568.799 149.573C568.386 149.776 568.384 149.982 568.793 150.193ZM710.737 137.691C706.227 145.803 706.255 153.971 710.82 162.195C710.836 162.225 710.86 162.25 710.889 162.268C710.917 162.286 710.95 162.297 710.984 162.299C711.017 162.302 711.051 162.296 711.082 162.281C711.113 162.267 711.14 162.246 711.16 162.219C715.069 157.081 719.897 153.1 725.643 150.277C726.108 150.046 726.11 149.815 725.649 149.585C720.137 146.829 715.314 142.852 711.178 137.655C711.152 137.62 711.117 137.593 711.078 137.575C711.038 137.558 710.994 137.55 710.95 137.554C710.907 137.557 710.864 137.572 710.827 137.596C710.79 137.619 710.759 137.652 710.737 137.691ZM530.814 164.813C529.255 167.184 528.287 169.842 527.909 172.789C527.904 172.822 527.908 172.855 527.919 172.887C527.93 172.918 527.949 172.947 527.974 172.969C527.999 172.992 528.029 173.008 528.061 173.016C528.093 173.024 528.127 173.024 528.16 173.015C530.395 172.419 532.54 171.586 534.596 170.516C540.995 167.184 545.025 161.891 546.687 154.637C546.694 154.605 546.694 154.571 546.685 154.538C546.676 154.506 546.659 154.477 546.636 154.453C546.613 154.428 546.585 154.41 546.553 154.4C546.521 154.389 546.487 154.387 546.454 154.393C542.629 155.085 539.304 156.534 536.481 158.741C534.186 160.539 532.298 162.563 530.814 164.813ZM754.836 167.432C757.962 170.339 761.662 172.194 765.937 172.997C766.003 173.011 766.072 173.007 766.137 172.986C766.202 172.966 766.261 172.929 766.307 172.879C766.354 172.83 766.387 172.769 766.404 172.703C766.42 172.637 766.42 172.568 766.402 172.502C763.865 162.942 757.787 156.906 748.167 154.393C748.123 154.38 748.077 154.38 748.033 154.391C747.989 154.402 747.948 154.425 747.915 154.456C747.881 154.488 747.856 154.528 747.842 154.572C747.828 154.616 747.825 154.663 747.833 154.709C748.72 159.672 751.054 163.913 754.836 167.432ZM702.899 183.353C695.613 190.622 688.392 197.836 681.234 204.994C680.665 205.562 680.657 205.795 681.21 205.692C681.333 205.668 681.474 205.618 681.633 205.542C683.133 204.815 684.634 204.097 686.137 203.389C689.827 201.655 693.714 200.848 697.799 200.967C697.836 200.968 697.872 200.961 697.907 200.947C697.941 200.933 697.972 200.911 697.997 200.884C698.022 200.857 698.042 200.825 698.054 200.79C698.066 200.755 698.07 200.718 698.067 200.681C697.558 194.986 698.986 189.849 702.35 185.267C702.779 184.683 703 184.06 703.012 183.4C703.016 183.289 702.978 183.273 702.899 183.353ZM609.833 201.629C604.031 195.899 598.209 190.189 592.367 184.498C591.898 184.045 591.667 184.041 591.675 184.486C591.679 184.629 591.731 184.77 591.83 184.909C595.127 189.411 596.557 194.533 596.119 200.275C596.115 200.328 596.123 200.381 596.142 200.431C596.161 200.481 596.19 200.525 596.227 200.562C596.265 200.599 596.31 200.627 596.359 200.645C596.408 200.662 596.461 200.668 596.513 200.663C602.358 200.086 607.596 201.651 612.225 205.357C612.531 205.6 612.841 205.682 613.155 205.602C613.188 205.595 613.217 205.578 613.24 205.554C613.263 205.53 613.279 205.5 613.287 205.465C613.295 205.431 613.294 205.394 613.285 205.359C613.275 205.323 613.257 205.29 613.233 205.262C612.147 204.005 611.014 202.795 609.833 201.629ZM566.563 209.336C571.307 211.436 576.007 211.44 580.664 209.348C581.006 209.193 581.012 209.026 580.682 208.847C576.041 206.326 571.329 206.284 566.545 208.722C566.123 208.936 566.129 209.141 566.563 209.336ZM713.582 209.467C718.386 211.877 723.146 211.883 727.862 209.485C728.18 209.326 728.178 209.169 727.856 209.014C723.247 206.815 718.491 206.867 713.588 209.169C713.381 209.265 713.379 209.364 713.582 209.467ZM659.372 213.19C651.315 208.74 643.223 208.797 635.094 213.363C635.056 213.385 635.023 213.417 635 213.455C634.976 213.493 634.962 213.537 634.959 213.581C634.956 213.626 634.964 213.671 634.983 213.712C635.001 213.753 635.029 213.788 635.065 213.816C640.039 217.574 644.042 222.423 647.072 228.364C647.227 228.671 647.38 228.669 647.531 228.359C650.303 222.672 654.268 217.844 659.426 213.876C659.48 213.834 659.522 213.779 659.55 213.717C659.578 213.654 659.589 213.586 659.584 213.518C659.579 213.45 659.556 213.384 659.519 213.327C659.482 213.27 659.432 213.222 659.372 213.19ZM587.5 216.238C585.042 220.982 585.098 225.603 587.667 230.1C587.766 230.275 587.866 230.273 587.965 230.094C590.327 225.704 590.365 221.087 588.078 216.244C587.891 215.85 587.698 215.848 587.5 216.238ZM706.364 216.363C703.799 221.119 703.756 225.875 706.233 230.631C706.38 230.917 706.521 230.916 706.657 230.625C708.975 225.686 708.933 220.932 706.531 216.363C706.476 216.256 706.42 216.256 706.364 216.363ZM629.112 258.321C626.769 261.116 625.139 264.486 624.22 268.431C624.207 268.486 624.208 268.544 624.223 268.598C624.238 268.653 624.267 268.703 624.306 268.744C624.345 268.785 624.393 268.815 624.447 268.832C624.501 268.85 624.558 268.853 624.614 268.843C630.448 267.773 635.055 265.025 638.435 260.599C640.594 257.768 642.066 254.547 642.849 250.936C642.863 250.869 642.86 250.8 642.841 250.734C642.823 250.669 642.788 250.609 642.741 250.561C642.693 250.512 642.635 250.476 642.57 250.456C642.506 250.437 642.438 250.433 642.372 250.447C637.063 251.481 632.643 254.105 629.112 258.321ZM659.551 264.214C662.347 266.62 665.77 268.211 669.823 268.986C669.885 268.997 669.949 268.992 670.009 268.972C670.069 268.952 670.122 268.918 670.165 268.872C670.208 268.826 670.238 268.771 670.254 268.71C670.269 268.65 670.268 268.587 670.252 268.527C667.731 258.955 661.704 252.976 652.172 250.59C652.138 250.582 652.103 250.583 652.07 250.593C652.036 250.602 652.005 250.62 651.981 250.644C651.956 250.669 651.937 250.699 651.927 250.732C651.917 250.765 651.915 250.8 651.922 250.835C653.027 256.326 655.57 260.786 659.551 264.214Z" fill="#D3A76E"/>
<path d="M560.359 48.7278C565.788 53.4123 568.567 59.2123 568.698 66.1277C568.726 67.5991 568.519 68.7106 568.078 69.4622C567.641 70.2058 567.018 70.7685 566.211 71.1503C565.591 71.4406 564.803 71.5301 563.849 71.4187C550.416 69.8559 542.48 62.2545 540.043 48.6145C539.653 46.4353 540.086 44.8028 541.343 43.7172C542.266 42.9179 543.683 42.5659 545.596 42.6614C551.068 42.9318 555.989 44.9539 560.359 48.7278ZM553.291 53.1956C552.094 52.3883 550.78 51.762 549.348 51.3166C548.903 51.1814 548.754 51.3345 548.901 51.7759C550.702 57.22 554.379 60.8785 559.93 62.7515C560.232 62.8549 560.338 62.7535 560.246 62.4473C559.483 59.8943 558.266 57.7429 556.595 55.9932C555.593 54.9394 554.492 54.0068 553.291 53.1956Z" fill="#D3A76E"/>
<path d="M732.615 50.1464C736.33 46.2771 740.776 43.913 745.953 43.054C748.335 42.6564 749.934 42.5033 750.749 42.5947C752.189 42.7498 753.26 43.4617 753.964 44.7302C754.453 45.6051 754.626 46.7702 754.483 48.2257C753.537 57.8173 748.709 64.6969 740 68.8644C738.012 69.8149 735.789 70.5724 733.331 71.1371C731.359 71.5865 729.86 71.6461 728.834 71.316C727.116 70.7593 726.135 69.3575 725.893 67.1107C725.622 64.6055 725.897 62.1638 726.716 59.7858C727.977 56.1432 729.943 52.93 732.615 50.1464ZM737.238 56.8689C735.938 58.5113 734.982 60.3365 734.369 62.3447C734.258 62.7026 734.381 62.8279 734.739 62.7205C740.362 61.0384 743.989 57.3302 745.619 51.5959C745.679 51.397 745.609 51.3275 745.41 51.3871C742.106 52.3335 739.382 54.1608 737.238 56.8689Z" fill="#D3A76E"/>
<path d="M662.198 134.632C662.115 134.306 662.017 134.3 661.906 134.614C658.757 143.434 656.41 152.247 654.867 161.051C654.41 163.656 653.603 166.03 652.446 168.173C651.535 169.847 650.543 170.953 649.469 171.49C647.914 172.269 646.246 172.058 644.464 170.857C643.84 170.436 643.357 169.887 643.015 169.211C642.776 168.734 642.637 168.042 642.597 167.135C642.092 155.961 640.164 145.025 636.811 134.328C636.684 133.922 636.561 133.922 636.442 134.328C633.336 144.711 631.326 155.358 630.411 166.27C630.339 167.149 630.103 167.909 629.701 168.549C629.339 169.13 628.753 169.613 627.941 169.998C625.941 170.945 624.172 170.859 622.633 169.742C621.328 168.792 620.481 167.294 620.092 165.25C619.777 163.576 619.738 161.779 619.972 159.858C621.471 147.677 624.691 136.133 629.63 125.225C630.091 124.199 630.685 123.145 631.413 122.064C632.455 120.513 633.167 119.544 633.549 119.159C634.475 118.22 635.602 117.699 636.931 117.596C638.06 117.512 639.168 117.856 640.253 118.628C641.915 119.809 643.162 121.312 643.993 123.137C644.224 123.646 644.791 125.466 645.693 128.595C646.942 132.93 647.978 137.241 648.801 141.527C648.952 142.311 649.147 142.323 649.386 141.563C650.785 137.062 652.34 132.62 654.05 128.237C654.997 125.824 656.052 123.676 657.218 121.795C657.953 120.602 658.987 119.556 660.319 118.658C662.113 117.449 663.795 117.216 665.366 117.96C666.42 118.457 667.436 119.57 668.414 121.3C670.339 124.692 671.701 128.486 672.5 132.681C674.723 144.329 675.991 155.597 676.306 166.485C676.345 167.869 676.164 168.881 675.763 169.521C675.158 170.48 674.194 171.068 672.87 171.287C669.561 171.836 667.322 170.967 666.153 168.68C665.616 167.63 665.308 165.58 665.229 162.53C665.058 156.005 664.885 151.684 664.71 149.568C664.28 144.438 663.443 139.46 662.198 134.632Z" fill="#D3A76E"/>
<path d="M523.086 145.059C524.115 145.794 525.064 146.836 525.931 148.184C526.857 149.62 526.804 151.038 525.77 152.437C525.404 152.934 524.42 153.684 522.817 154.686C521.624 155.43 520.536 156.016 519.554 156.446C512.838 159.377 506.348 158.675 500.084 154.34C497.742 152.722 496.925 150.811 497.633 148.608C498.027 147.379 498.945 146.258 500.389 145.244C501.61 144.385 502.916 143.659 504.308 143.066C510.985 140.223 517.244 140.887 523.086 145.059ZM514.741 149.895C514.741 149.834 514.664 149.774 514.515 149.718C514.366 149.662 514.147 149.61 513.872 149.567C513.596 149.523 513.269 149.488 512.908 149.464C512.548 149.44 512.162 149.426 511.772 149.425C510.984 149.422 510.228 149.468 509.671 149.552C509.113 149.636 508.8 149.752 508.799 149.874C508.799 149.934 508.876 149.994 509.025 150.05C509.174 150.107 509.393 150.158 509.668 150.202C509.944 150.245 510.271 150.28 510.632 150.305C510.992 150.329 511.378 150.342 511.768 150.344C512.556 150.346 513.312 150.301 513.869 150.216C514.427 150.132 514.74 150.017 514.741 149.895Z" fill="#D3A76E"/>
<path d="M770.1 153.508C768.529 152.231 767.931 150.782 768.304 149.159C768.559 148.038 769.342 146.899 770.655 145.741C772.929 143.721 775.526 142.425 778.445 141.852C781.395 141.272 784.31 141.321 787.189 142.001C790.041 142.677 792.713 144.059 795.206 146.147C796.686 147.388 797.338 148.762 797.163 150.269C797.028 151.442 796.294 152.553 794.962 153.603C793.395 154.836 791.488 155.93 789.241 156.884C785.957 158.28 782.563 158.594 779.059 157.826C775.731 157.095 772.744 155.655 770.1 153.508ZM785.615 149.962C785.615 149.823 785.305 149.688 784.752 149.586C784.199 149.485 783.448 149.426 782.665 149.422C782.277 149.42 781.893 149.431 781.535 149.456C781.176 149.48 780.851 149.517 780.576 149.565C780.302 149.612 780.084 149.669 779.935 149.732C779.786 149.794 779.71 149.862 779.709 149.931C779.709 150.07 780.019 150.206 780.572 150.307C781.126 150.408 781.876 150.468 782.659 150.472C783.047 150.474 783.431 150.462 783.789 150.438C784.148 150.413 784.474 150.376 784.748 150.329C785.022 150.282 785.24 150.225 785.389 150.162C785.538 150.099 785.614 150.031 785.615 149.962Z" fill="#D3A76E"/>
<path d="M541.79 256.229C540.752 255.625 540.118 254.668 539.887 253.36C539.732 252.481 539.895 251.044 540.376 249.047C543.108 237.638 550.02 230.821 561.11 228.594C563.405 228.132 565.155 228.136 566.36 228.606C567.946 229.226 568.781 230.481 568.865 232.369C568.901 233.145 568.767 234.537 568.465 236.545C567.543 242.629 564.815 247.526 560.281 251.237C557.271 253.698 553.585 255.436 549.222 256.45C547.341 256.887 546.112 257.12 545.536 257.148C544.204 257.22 542.955 256.913 541.79 256.229ZM551.554 242.522C550.294 244.101 549.351 245.944 548.727 248.051C548.628 248.377 548.739 248.483 549.061 248.367C554.605 246.423 558.259 242.76 560.025 237.38C560.14 237.03 560.023 236.911 559.673 237.022C556.332 238.096 553.626 239.929 551.554 242.522Z" fill="#D3A76E"/>
<path d="M733.586 250.268C728.305 245.413 725.683 239.535 725.719 232.636C725.735 229.502 727.423 228.082 730.783 228.377C741.743 229.343 749.201 234.889 753.158 245.013C754.128 247.503 754.476 250.237 754.202 253.215C754.082 254.492 753.625 255.478 752.83 256.174C752.201 256.719 751.251 256.983 749.978 256.967C743.826 256.899 738.362 254.667 733.586 250.268ZM739.551 245.198C741.54 246.848 743.592 247.91 745.707 248.383C745.906 248.427 745.972 248.354 745.904 248.163C743.952 242.651 740.295 238.949 734.935 237.056C734.553 236.921 734.42 237.048 734.535 237.438C735.489 240.631 737.162 243.218 739.551 245.198Z" fill="#D3A76E"/>
<path d="M650.113 271.882C650.372 272.093 650.602 272.332 650.805 272.598C657.414 281.204 657.482 289.517 651.008 297.538C650.081 298.691 649.26 299.423 648.544 299.733C647.316 300.262 646.111 300.005 644.93 298.963C643.065 297.317 641.468 294.947 640.14 291.853C638.696 288.485 638.404 285.013 639.263 281.438C639.959 278.559 641.305 275.811 643.301 273.195C644.303 271.878 645.234 271.083 646.093 270.809C647.385 270.395 648.725 270.753 650.113 271.882ZM647.256 288.203C647.387 288.203 647.513 287.895 647.606 287.348C647.699 286.801 647.751 286.059 647.751 285.286C647.751 284.512 647.699 283.77 647.606 283.223C647.513 282.676 647.387 282.369 647.256 282.369C647.191 282.369 647.127 282.444 647.066 282.591C647.006 282.737 646.952 282.952 646.906 283.223C646.86 283.494 646.823 283.816 646.799 284.169C646.774 284.523 646.761 284.903 646.761 285.286C646.761 285.669 646.774 286.048 646.799 286.402C646.823 286.756 646.86 287.077 646.906 287.348C646.952 287.619 647.006 287.834 647.066 287.981C647.127 288.127 647.191 288.203 647.256 288.203Z" fill="#D3A76E"/>
</svg>
