<svg width="308" height="115" viewBox="0 0 308 115" fill="none" xmlns="http://www.w3.org/2000/svg">
<path d="M26.746 18.6454C27.1617 17.1531 25.7867 14.467 24.4756 14.8188C22.7488 16.6095 16.6624 18.1658 14.8077 15.1172C13.7951 14.3391 10.4481 17.0252 10.5014 19.5408C11.7592 25.0942 23.1006 23.7725 26.7353 18.6454H26.746Z" fill="#143535"/>
<path d="M33.5465 57.498C30.3167 57.498 28.121 59.5873 27.9291 62.0389C27.7479 64.5438 29.6559 66.633 32.8217 66.633C35.9874 66.633 38.0127 64.5438 38.3111 62.0389C38.6096 59.5873 36.8828 57.498 33.5358 57.498H33.5465Z" fill="#143535"/>
<path d="M98.0771 29.3258C96.2224 35.2416 94.5489 41.2108 93.483 43.8969C91.9907 47.7129 86.3733 48.1286 85.2435 44.7922C87.2794 39.1216 89.1234 32.5555 90.4984 27.9614C89.4218 26.5864 81.6087 26.9488 78.7414 29.3364C76.8973 35.2523 75.2238 41.2214 74.1472 43.9075C72.655 47.6063 67.3467 48.0859 65.9717 45.0374C66.0143 44.9948 66.0356 44.9557 66.0356 44.9202C68.0076 39.2495 69.9795 32.6301 71.3439 27.9721C70.2673 26.597 62.4541 26.9594 59.5868 29.3471C57.7321 35.2629 56.0586 41.2321 54.9927 43.9182C53.3086 47.8834 47.2222 48.1499 46.5826 44.1953C48.4693 38.6952 50.3346 32.4383 51.6457 27.9827C50.5692 26.6077 42.756 26.9701 39.8887 29.3578C38.034 35.2736 36.3605 41.2427 35.2946 43.9288C33.4825 48.1819 26.6393 48.1819 26.8418 43.3106C27.5134 41.9782 28.1636 40.5073 28.7925 38.8551C27.7159 37.4268 21.8107 35.8066 19.6575 37.0004C18.581 39.921 15.6604 46.7962 13.1554 47.0307C7.13301 47.5743 13.1554 33.1844 22.1731 34.0798C24.4435 34.3143 26.9484 35.0924 29.6985 36.7019C30.9563 36.8831 34.2393 33.6001 33.6957 31.5642C23.7826 21.3527 1.46233 29.2405 0.0872969 44.0354C-1.02126 56.3894 16.9821 57.1356 24.71 46.8495C24.7739 48.0007 25.0084 49.0453 25.4561 49.9513C28.2595 55.7392 39.4836 54.8439 43.662 49.834C44.0244 49.4183 44.3442 48.96 44.6426 48.4803C44.7706 49.0026 44.9304 49.5036 45.1543 49.9513C47.9577 55.7392 59.1818 54.8439 63.3602 49.834C63.5947 49.5995 63.7759 49.3544 63.9571 49.0559L64.3088 49.9513C67.1228 55.7392 78.2723 54.7906 82.5147 49.834C82.7492 49.5356 82.9944 49.2371 83.2289 48.8747C83.3461 49.2904 83.4634 49.5889 83.6446 49.9513C86.4479 55.7392 97.6081 54.7906 101.85 49.834C102.98 48.523 103.822 46.9134 104.537 44.9415C106.572 39.2708 108.48 32.6514 109.845 27.9934C108.768 26.6183 100.955 26.9808 98.0878 29.3684L98.0771 29.3258Z" fill="#143535"/>
<path d="M140.394 23.9003C143.496 23.9003 145.585 21.8111 145.884 19.3062C146.182 16.8546 144.455 14.7654 141.108 14.7654C137.761 14.7654 135.672 16.8546 135.491 19.3062C135.31 21.8111 137.218 23.9003 140.383 23.9003H140.394Z" fill="#143535"/>
<path d="M162.597 26.6398C158.781 26.5226 154.603 27.354 150.488 29.2087C148.516 30.9994 149.412 34.3997 150.787 34.4636C157.896 32.4917 164.697 31.8948 165.71 37.8106C166.424 41.9251 163.141 48.3739 159.74 47.4785C157.417 46.8816 159.506 39.0045 160.519 36.2011C159.208 34.7728 152.215 35.359 150.137 36.4995C149.124 39.3669 148.527 41.7545 148.41 43.7798V44.1955C146.63 47.9368 140.756 48.0541 140.149 44.1209C142.025 38.6314 143.88 32.4064 145.191 27.9616C144.114 26.5865 136.301 26.9489 133.434 29.3366C131.579 35.2524 129.905 41.2216 128.84 43.9077C127.251 47.6277 121.804 48.0967 120.611 44.8777C120.739 44.6538 120.834 44.4087 120.898 44.1422L121.975 39.7826C125.791 23.6019 125.855 24.444 128.477 13.998C126.143 11.4292 119.108 11.7276 117.967 13.156C115.761 21.161 113.906 28.8569 110.452 41.989C109.856 44.3127 111.284 46.2847 113.608 46.2847H118.148C118.148 46.2847 118.191 46.2847 118.212 46.2847C118.212 47.6597 118.468 48.8855 118.98 49.9301C121.783 55.718 133.007 54.8227 137.186 49.8129C137.548 49.3972 137.868 48.9388 138.166 48.4591C138.294 48.9814 138.454 49.4824 138.678 49.9301C141.066 54.8866 147.983 53.9273 151.213 50.9427C152.94 52.6695 155.274 53.9273 157.832 54.2258C178.959 56.8479 185.227 27.1195 162.608 26.6398H162.597Z" fill="#143535"/>
<path d="M5.41489 97.534C6.74729 98.3334 8.43144 98.7279 10.4567 98.7279C12.4819 98.7279 14.1661 98.3334 15.4772 97.534C16.8096 96.7239 17.7902 95.5941 18.4297 94.1551C19.0693 92.7054 19.3891 91.0212 19.3891 89.0706C19.3891 87.12 19.0693 85.4358 18.4297 83.9862C17.7902 82.5366 16.8096 81.4173 15.4985 80.6179C14.1767 79.8291 12.5032 79.4241 10.478 79.4241C8.45276 79.4241 6.74729 79.8291 5.41489 80.6179C4.09315 81.4173 3.11251 82.5259 2.48362 83.9649C1.84407 85.4039 1.52429 87.0987 1.52429 89.0493C1.52429 90.9999 1.84407 92.6948 2.48362 94.1551C3.12317 95.6047 4.09315 96.7346 5.41489 97.534ZM6.8219 84.4339C7.5787 83.304 8.79385 82.7284 10.478 82.7284C12.1622 82.7284 13.3666 83.2934 14.0915 84.4339C14.8376 85.5531 15.2107 87.0987 15.2107 89.0706C15.2107 91.0426 14.8376 92.5668 14.0915 93.7074C13.356 94.8372 12.1408 95.4128 10.4567 95.4128C8.77253 95.4128 7.56805 94.8479 6.8219 93.7074C6.07576 92.5775 5.70269 91.0319 5.70269 89.0706C5.70269 87.1093 6.07576 85.5638 6.8219 84.4339Z" fill="#D3A76E"/>
<path d="M31.338 97.5343C32.5851 98.3337 34.184 98.7281 36.124 98.7281C37.1259 98.7281 38.0319 98.6535 38.842 98.4936C39.6521 98.3337 40.4622 98.0992 41.283 97.7688V94.4218C40.3876 94.7309 39.5456 94.9867 38.7781 95.1679C38.0106 95.3385 37.2432 95.4238 36.4864 95.4238C34.8449 95.4238 33.651 94.8801 32.9049 93.7822C32.1587 92.6843 31.7857 91.1388 31.7857 89.1455C31.7857 87.1522 32.1801 85.6066 32.9795 84.4768C33.7896 83.3362 34.9514 82.7606 36.4757 82.7606C37.1686 82.7606 37.8614 82.8886 38.5649 83.1337C39.2684 83.3789 39.9719 83.6667 40.6754 83.9971L41.9652 80.7674C41.1018 80.3623 40.2064 80.0426 39.2684 79.8081C38.3304 79.5736 37.3924 79.4563 36.4757 79.4563C34.589 79.4563 32.9902 79.872 31.6897 80.6928C30.3893 81.5135 29.3874 82.654 28.6945 84.1144C28.0123 85.564 27.6819 87.2375 27.6819 89.1348C27.6819 91.0322 27.9803 92.7376 28.5666 94.1766C29.1635 95.6263 30.0802 96.7455 31.3273 97.5449L31.338 97.5343Z" fill="#D3A76E"/>
<path d="M48.1582 100.348H0V102.224H48.1582H176.921V100.348H48.1582Z" fill="#D3A76E"/>
<path d="M53.5943 97.5447C54.8734 98.3228 56.4723 98.7172 58.3803 98.7172C59.4036 98.7172 60.2989 98.6532 61.0344 98.536C61.7805 98.4187 62.5054 98.2269 63.2089 97.9497V95.9138C62.4947 96.127 61.7592 96.2975 61.0238 96.4468C60.2883 96.5747 59.5208 96.6386 58.7214 96.6386C56.5682 96.6386 54.948 95.9671 53.8714 94.6027C52.8055 93.249 52.2726 91.405 52.2726 89.0706C52.2726 86.7363 52.8482 84.8816 53.9887 83.5385C55.1505 82.1848 56.7388 81.5026 58.764 81.5026C59.5954 81.5026 60.3629 81.6092 61.0664 81.8117C61.7806 82.0249 62.4201 82.2594 63.0064 82.5366L63.9657 80.522C62.4947 79.7971 60.7679 79.4241 58.7853 79.4241C56.8027 79.4241 55.2145 79.8398 53.8608 80.6605C52.5177 81.4706 51.4944 82.6005 50.8123 84.0395C50.1194 85.4892 49.7783 87.1626 49.7783 89.0493C49.7783 90.936 50.0981 92.7161 50.7376 94.1764C51.3772 95.626 52.3259 96.7452 53.6156 97.5447H53.5943Z" fill="#D3A76E"/>
<path d="M74.6568 92.6631H82.0863L84.3354 98.4724H86.7763L79.4854 79.627H77.3536L70.0201 98.4724H72.4077L74.6568 92.6631ZM77.5668 84.8819C77.6734 84.5835 77.7906 84.1784 77.9398 83.6668C78.0997 83.1445 78.2383 82.6115 78.3662 82.0679C78.4408 82.2811 78.5368 82.5902 78.6434 82.9846C78.7606 83.379 78.8779 83.752 78.9951 84.1145C79.123 84.4769 79.219 84.7327 79.2722 84.8819L81.3828 90.5526H75.4349L77.5668 84.8819Z" fill="#D3A76E"/>
<path d="M98.5654 98.7173C100.612 98.7173 102.243 98.2589 103.458 97.3315C104.673 96.4042 105.281 95.1144 105.281 93.441C105.281 92.4603 105.078 91.6609 104.673 91.0213C104.279 90.3711 103.703 89.8062 102.936 89.3372C102.179 88.8682 101.251 88.4312 100.164 88.0261C99.1516 87.6637 98.3309 87.312 97.7446 86.9709C97.1477 86.6298 96.7107 86.2567 96.4549 85.841C96.1884 85.4146 96.0605 84.8816 96.0605 84.2528C96.0605 83.432 96.3589 82.7818 96.9452 82.2808C97.5421 81.7692 98.4268 81.5134 99.5993 81.5134C100.409 81.5134 101.198 81.6093 101.966 81.8118C102.733 82.0037 103.437 82.2382 104.097 82.5153L104.844 80.5007C104.129 80.1916 103.341 79.9358 102.477 79.7333C101.614 79.5414 100.676 79.4348 99.6633 79.4348C98.4801 79.4348 97.4355 79.6267 96.5295 80.0211C95.6448 80.4048 94.9413 80.9484 94.4403 81.6626C93.9286 82.3767 93.6728 83.2401 93.6728 84.2208C93.6728 85.6704 94.0672 86.8216 94.8666 87.6637C95.6767 88.4951 96.8812 89.1986 98.5014 89.7742C99.6206 90.2006 100.505 90.595 101.145 90.9467C101.795 91.2878 102.253 91.6716 102.509 92.0979C102.786 92.5136 102.925 93.0359 102.925 93.6435C102.925 94.5708 102.563 95.3063 101.848 95.8499C101.134 96.3936 100.079 96.6707 98.6826 96.6707C97.6913 96.6707 96.732 96.5641 95.794 96.3403C94.856 96.1058 94.0779 95.85 93.449 95.5622V97.8325C94.0352 98.1097 94.7707 98.3229 95.6554 98.4828C96.5508 98.6426 97.5314 98.7173 98.5867 98.7173H98.5654Z" fill="#D3A76E"/>
<path d="M119.596 97.0972L117.389 96.6069V81.5987L119.596 81.0658V79.7014H112.806V81.0658L115.023 81.5987V96.6069L112.806 97.0972V98.4722H119.596V97.0972Z" fill="#D3A76E"/>
<path d="M131.332 97.534C132.622 98.3334 134.242 98.7279 136.203 98.7279C138.164 98.7279 139.646 98.3334 140.936 97.534C142.226 96.7239 143.196 95.5941 143.846 94.1551C144.507 92.7054 144.848 91.0212 144.848 89.0706C144.848 87.12 144.517 85.4358 143.846 83.9862C143.196 82.5366 142.226 81.4173 140.957 80.6179C139.678 79.8291 138.1 79.4241 136.224 79.4241C134.252 79.4241 132.622 79.8291 131.332 80.6392C130.053 81.4387 129.093 82.5579 128.454 84.0075C127.825 85.4572 127.516 87.1413 127.516 89.0493C127.516 90.9573 127.825 92.6948 128.454 94.1551C129.093 95.6047 130.053 96.7346 131.332 97.534ZM131.513 83.5172C132.515 82.1741 134.082 81.5026 136.224 81.5026C138.367 81.5026 139.881 82.1741 140.861 83.5172C141.852 84.8496 142.343 86.7043 142.343 89.0706C142.343 91.437 141.842 93.2916 140.861 94.6667C139.87 96.0204 138.324 96.7026 136.203 96.7026C134.082 96.7026 132.515 96.0311 131.513 94.6667C130.522 93.3023 130.031 91.437 130.031 89.0706C130.031 86.7043 130.522 84.8496 131.513 83.5172Z" fill="#D3A76E"/>
<path d="M156.434 87.9835C156.434 87.0242 156.402 86.0862 156.36 85.1695C156.306 84.2635 156.264 83.496 156.221 82.8778H156.338L166.369 98.4615H169.129V79.6907H166.923V90.2859C166.923 90.8615 166.923 91.4797 166.965 92.1406C166.987 92.7908 167.019 93.3984 167.04 93.9633C167.061 94.5283 167.093 94.9546 167.115 95.2318H166.997L156.988 79.6907H154.249V98.4615H156.434V87.9835Z" fill="#D3A76E"/>
<path d="M262.507 32.944C262.843 33.2802 262.843 33.6163 262.843 33.6163C264.86 34.961 266.541 36.6418 269.23 35.2971C268.894 33.9525 268.221 32.944 268.221 31.9355C267.549 29.2462 268.221 26.8931 270.238 24.8761C271.247 23.8676 271.919 23.8676 272.928 24.8761C274.272 26.5569 275.281 28.5739 275.281 30.5909C275.281 30.927 275.281 31.5994 275.281 31.9355C276.289 31.9355 277.298 31.9355 278.306 32.2717C279.987 32.6078 281.332 33.2802 282.676 34.6248C283.685 35.6333 283.685 36.3056 282.676 37.3141C280.323 39.6673 276.289 40.3396 273.264 38.9949C272.928 38.6588 272.255 38.6588 271.919 38.3226C270.911 39.6673 271.247 41.3481 272.255 42.6927C272.592 43.365 272.928 44.0374 272.928 44.7097C273.264 50.0883 277.634 54.7946 282.676 55.8031H283.013C283.349 53.1138 284.357 51.0968 286.374 49.0798C288.391 47.0628 291.081 46.0543 293.77 46.0543C295.114 46.0543 295.787 46.7267 295.787 48.0713C295.787 51.7691 294.106 54.4584 291.417 56.8115C291.08 57.1477 290.744 57.4839 290.408 57.4839C293.097 59.1647 295.114 61.5178 295.787 64.5433C296.123 65.2156 296.123 66.2241 296.123 67.2326C296.123 68.2411 295.451 68.9134 294.442 68.9134C289.064 68.9134 284.357 65.2156 283.349 59.837C283.349 59.837 283.349 59.5008 283.349 59.1647C281.668 59.1647 279.987 59.837 278.642 60.8455C275.281 63.1986 273.264 66.2241 273.264 70.2581C273.264 70.9304 272.928 71.6027 272.592 71.9389C271.583 73.2835 271.247 74.9643 271.919 76.309C272.928 75.9728 274.272 75.3005 275.281 75.3005C278.306 74.6282 280.659 75.6367 282.676 77.6536C283.349 78.326 283.349 79.3344 282.676 80.0068C280.996 81.6876 278.979 82.3599 276.626 82.6961C276.289 82.6961 275.617 82.6961 275.281 82.6961C275.281 84.0407 275.281 85.0492 274.945 86.3939C274.609 87.7385 273.6 89.0832 272.928 90.0916C271.919 91.1001 271.247 91.1001 270.238 90.0916C267.885 87.7385 267.213 83.7046 268.894 80.6791C269.23 80.3429 269.23 80.0068 269.566 79.6706C268.221 78.9983 266.541 78.9983 265.196 80.0068C264.524 80.6791 263.851 81.0153 262.843 81.0153C257.128 81.3514 252.758 85.7215 252.086 91.1001C253.43 91.4363 254.775 91.7725 256.12 92.4448C259.817 94.4618 261.834 97.8234 261.834 102.193C261.834 103.538 261.498 103.874 260.154 103.874C256.456 103.874 253.43 102.193 251.077 99.168C250.741 98.8319 250.741 98.4957 250.405 98.1595C250.069 98.4957 250.069 98.4957 249.733 98.8319C247.716 101.857 244.69 103.202 241.328 103.538C239.311 103.874 238.639 102.866 238.975 100.513C239.648 95.1341 243.345 91.7725 248.724 90.764C249.733 86.0577 243.682 81.0152 236.622 80.3429C235.278 78.9983 233.261 77.9898 231.244 78.9983C232.252 80.6791 232.924 82.3599 232.588 84.3769C232.588 86.3939 231.58 88.4108 230.235 89.7555C229.227 90.764 228.554 90.764 227.546 89.7555C226.201 88.4108 225.193 86.3939 225.193 84.3769C225.193 83.7046 225.193 83.0322 225.193 82.3599C223.848 82.3599 222.84 82.3599 221.831 82.0237C220.486 81.3514 219.142 80.6791 217.797 80.0068C216.789 79.3344 216.789 78.6621 217.797 77.6536C220.15 74.9643 224.52 74.292 227.882 76.309C228.218 76.309 228.218 76.6451 228.554 76.6451C229.227 75.6366 229.563 73.9558 228.554 72.6112C227.882 71.6027 227.546 70.5942 227.546 69.2496C227.21 64.2071 222.503 59.837 217.461 59.1647C216.452 60.5093 216.116 61.854 215.108 63.1986C213.091 66.5603 209.729 68.2411 205.695 68.5772C204.351 68.5772 204.014 68.2411 204.014 66.8964C204.014 63.1986 205.695 60.1732 208.721 57.82C209.057 57.4839 209.393 57.4839 209.393 57.1477C208.721 56.4754 207.712 55.8031 207.04 55.1307C205.023 53.1138 204.014 50.4245 204.014 47.399C204.014 46.0543 204.351 45.7182 205.695 45.7182C210.401 45.7182 215.108 49.0798 216.452 53.7861C216.452 54.4584 216.789 54.7946 216.789 55.4669C218.806 55.1307 220.823 54.4584 222.167 53.4499C225.193 51.0968 226.873 48.4075 226.873 44.3735C226.873 43.7012 227.21 43.0289 227.546 42.3566C228.554 41.0119 228.89 39.3311 228.218 37.6503C226.537 38.6588 224.856 38.9949 222.84 38.9949C220.486 38.9949 218.806 37.9864 217.125 36.6418C216.452 35.9695 216.452 35.2971 217.125 34.2887C218.806 32.6078 220.823 31.9355 223.176 31.9355C223.512 31.9355 224.184 31.9355 224.52 31.9355C224.184 29.5824 224.52 27.5654 225.865 25.5484C227.546 23.1953 228.554 23.1953 230.235 25.5484C231.916 28.2377 232.252 31.2632 230.907 34.2887C230.907 34.6248 230.571 34.961 230.571 35.2971C231.916 36.3056 233.597 35.9695 234.941 34.961C235.614 34.2887 236.286 34.2887 237.294 33.9525C242.673 33.6163 247.716 28.9101 248.052 23.8676C247.716 23.8676 247.379 23.5315 247.043 23.5315C242.001 22.523 238.303 18.1529 238.303 13.1104C238.303 12.4381 238.303 11.7658 238.639 11.4296C243.682 10.4211 247.043 12.4381 249.733 16.472C253.43 11.4296 256.12 11.0934 260.49 11.4296C261.498 13.1104 260.826 16.8082 258.809 19.4975C256.792 21.8506 254.439 23.1953 251.413 23.8676C251.749 28.9101 256.12 33.6163 261.834 34.2887C261.834 33.9525 261.834 33.6163 261.834 33.2802C262.171 32.944 262.507 32.944 262.507 32.944ZM230.235 69.5857V69.9219C230.235 69.9219 230.235 69.9219 230.571 70.2581C231.58 71.9389 232.252 73.6197 231.916 75.6367C233.933 75.3005 235.614 75.9728 237.294 76.9813C234.941 74.6282 232.588 72.6112 230.571 70.2581C230.235 69.9219 230.235 69.5857 230.235 69.5857ZM263.179 37.3141C262.843 37.3141 262.843 36.978 262.507 36.978C262.507 37.3141 262.843 37.6503 263.179 37.3141C265.196 39.6673 267.549 42.0204 269.902 44.3735C269.902 44.3735 269.902 44.7097 270.238 44.7097C270.238 44.7097 270.238 44.3735 269.902 44.3735C268.894 42.6927 268.221 41.0119 268.558 38.9949C266.541 38.9949 264.524 38.6588 263.179 37.3141ZM237.294 37.3141C235.614 38.6588 233.933 38.9949 231.916 38.9949C231.916 41.0119 231.58 43.0289 230.235 44.7097C230.235 44.7097 230.235 45.0459 229.899 45.382C230.235 45.0459 230.235 45.0459 230.571 45.0459C232.924 42.3566 235.278 40.0034 237.294 37.3141C237.631 37.3141 237.631 37.3141 237.967 36.978C237.631 37.3141 237.294 37.3141 237.294 37.3141ZM286.374 58.8285C287.047 62.1901 290.408 65.5518 293.097 65.2156C292.761 62.1901 290.072 59.5008 286.374 58.8285C286.71 58.8285 286.71 58.8285 286.374 58.8285ZM270.911 64.2071C269.566 62.1901 268.558 59.837 268.558 57.4839C268.558 54.7946 269.566 52.7776 270.911 50.7606C266.204 46.0543 261.498 41.3481 256.792 36.6418C252.086 39.6673 247.716 39.6673 243.009 36.6418C238.303 41.3481 233.597 46.0543 228.89 50.7606C231.916 55.4669 231.916 59.837 228.89 64.5433C233.597 69.2496 238.303 73.9558 243.009 78.6621C247.379 75.6367 252.086 75.6367 256.792 78.6621C261.498 73.2835 266.204 68.9134 270.911 64.2071ZM250.069 85.3854C250.741 84.713 251.077 83.7046 252.086 82.6961C252.758 81.6876 253.766 81.0152 254.439 80.3429C252.422 78.6621 247.716 78.6621 246.035 80.3429C247.379 81.6876 248.724 83.7046 250.069 85.3854ZM227.21 61.5178C228.89 59.1647 228.89 54.7946 227.21 53.1138C225.529 54.4584 223.848 56.1392 222.167 57.1477C223.848 58.4924 225.529 60.1732 227.21 61.5178ZM272.928 61.5178C274.609 60.1732 276.289 58.4924 277.97 57.1477C276.289 55.8031 274.609 54.4584 272.928 52.7776C271.247 55.8031 271.247 59.1647 272.928 61.5178ZM246.035 34.2887C248.388 35.9695 252.422 35.9695 254.439 34.2887C253.094 32.6078 251.413 30.927 250.069 29.2462C248.724 30.927 247.379 32.6078 246.035 34.2887ZM207.04 49.0798C207.712 52.4414 210.738 55.8031 213.763 55.4669C213.427 52.1053 210.065 49.0798 207.04 49.0798ZM242.001 14.1189C242.001 17.1444 246.035 20.8422 248.388 20.506C248.052 17.4805 244.69 14.4551 242.001 14.1189ZM258.137 100.177C258.137 97.1511 254.439 93.4533 251.749 93.7894C252.086 96.8149 255.111 99.8404 258.137 100.177ZM248.388 93.4533C245.026 93.7894 241.665 97.4872 242.001 99.8404C244.69 100.177 248.052 96.8149 248.388 93.4533ZM213.763 58.8285C210.738 58.8285 207.04 62.5263 207.376 65.2156C209.729 65.5518 213.427 62.1901 213.763 58.8285ZM293.097 49.0798C289.736 49.416 286.374 52.7776 286.71 55.4669C289.4 55.4669 292.761 52.1053 293.097 49.0798ZM251.749 20.8422C254.439 20.8422 258.473 16.8082 258.137 14.4551C255.447 14.1189 251.749 17.8167 251.749 20.8422ZM262.507 77.3175C263.515 76.6451 264.524 76.309 265.196 75.9728C266.204 75.6367 267.213 75.6367 268.221 75.3005C267.885 73.2835 268.894 71.2665 269.902 69.5857C267.549 72.275 264.86 74.6282 262.507 77.3175ZM273.936 78.6621C275.953 79.6706 277.634 79.6706 279.651 78.6621C277.298 77.6536 275.617 77.6536 273.936 78.6621ZM279.651 35.9695C277.634 34.961 275.953 34.961 273.936 35.9695C275.953 36.978 277.634 36.978 279.651 35.9695ZM228.554 27.9016C227.546 29.5824 227.546 31.2632 228.554 33.2802C229.899 31.9355 229.899 29.2462 228.554 27.9016ZM226.201 78.6621C224.184 77.6536 222.167 77.6536 220.823 78.6621C222.503 79.6706 224.184 79.6706 226.201 78.6621ZM271.583 27.9016C270.575 29.9185 270.575 31.5994 271.583 33.2802C272.592 31.5994 272.592 29.9185 271.583 27.9016ZM228.554 86.3939C229.563 84.3769 229.563 82.0237 228.554 81.0153C227.546 83.0322 227.882 84.713 228.554 86.3939ZM271.583 81.3514C270.575 82.3599 270.575 85.3854 271.583 86.3939C272.255 84.713 272.255 83.0322 271.583 81.3514ZM220.823 35.6333C222.503 36.6418 224.52 36.6418 225.865 35.6333C224.856 34.6248 222.503 34.6248 220.823 35.6333Z" fill="#D4A870"/>
<path d="M221.831 28.2377C220.15 29.2462 218.806 28.9101 217.797 28.5739C214.099 27.5654 211.41 23.8676 211.41 20.1698C211.41 18.8252 211.746 18.8252 213.091 18.489C216.789 18.489 219.814 20.1698 221.159 23.5315C221.495 24.8761 221.495 26.5569 221.831 28.2377ZM214.435 21.8506C215.108 23.8676 216.789 25.5484 218.469 25.8846C218.469 23.8676 216.452 21.8506 214.435 21.8506Z" fill="#D4A870"/>
<path d="M221.159 85.7216C222.503 91.1002 218.133 96.1426 212.755 95.8064C211.41 95.8064 211.074 95.4703 211.074 94.1256C211.074 89.7555 215.444 84.7131 221.159 85.7216ZM214.435 92.781C216.789 92.1086 218.469 90.4278 218.469 88.747C216.789 89.0832 214.772 90.764 214.435 92.781Z" fill="#D4A870"/>
<path d="M278.979 28.5738C277.634 21.5144 283.685 17.8166 288.391 18.4889C288.391 18.8251 288.727 19.4974 288.727 19.8336C288.727 24.5399 284.693 28.91 279.987 28.5738C279.651 28.91 279.315 28.5738 278.979 28.5738ZM285.702 21.5144C283.685 21.8506 282.004 23.8675 281.668 25.5483C283.349 25.5483 285.366 23.8675 285.702 21.5144Z" fill="#D4A870"/>
<path d="M278.642 85.7215C280.996 85.3854 282.676 85.7215 284.357 86.73C287.047 88.4108 288.727 91.1001 288.727 94.4617C288.727 95.4702 288.055 96.1426 287.047 96.1426C283.349 96.1426 279.651 93.7894 278.642 90.4278C278.642 88.747 278.642 87.0662 278.642 85.7215ZM285.702 92.7809C285.03 90.4278 283.349 89.0831 281.668 88.747C282.004 90.764 283.349 92.1086 285.702 92.7809Z" fill="#D4A870"/>
<path d="M299.485 60.173C297.131 60.173 295.451 59.5007 294.442 58.1561C293.434 57.1476 293.434 56.4752 294.442 55.4668C297.131 53.1136 301.502 53.1136 303.855 55.4668C304.527 56.1391 304.527 57.1476 303.855 57.8199C302.51 59.8369 300.829 60.173 299.485 60.173ZM298.14 57.1476C297.804 57.1476 297.804 57.1476 298.14 57.1476C298.14 57.4837 297.804 57.4837 298.14 57.1476C298.812 57.4837 299.485 57.4837 299.821 57.4837H300.157C299.821 57.4837 299.821 57.4837 299.821 57.1476C299.148 57.1476 298.476 57.1476 298.14 57.1476Z" fill="#D4A870"/>
<path d="M201.997 60.173C199.308 60.173 197.627 59.5006 196.283 58.156C195.61 57.4837 195.61 56.8114 196.283 55.8029C198.636 53.1136 203.678 53.1136 206.031 55.8029C206.704 56.4752 206.704 57.4837 206.031 58.156C204.687 59.5006 203.006 60.173 201.997 60.173ZM200.317 57.4837C200.989 57.4837 201.325 57.4837 201.997 57.4837H202.334C201.997 57.4837 201.997 57.4837 201.997 57.1475C201.325 57.1475 200.989 57.1475 200.317 57.4837C200.317 57.1475 200.317 57.1475 200.317 57.4837Z" fill="#D4A870"/>
<path d="M247.043 8.40405C246.707 6.72323 247.379 5.04242 248.724 3.69777C249.396 2.68928 250.405 2.68928 251.077 3.69777C253.43 6.05091 253.43 10.7572 251.077 13.1103C250.069 14.1188 249.396 14.1188 248.724 13.1103C247.716 11.7657 247.043 10.0849 247.043 8.40405ZM250.069 7.39556C250.069 8.06789 250.069 8.74021 250.069 9.41254C250.069 9.41254 250.069 9.41254 250.405 9.41254C250.069 8.74021 250.069 8.06789 250.069 7.39556Z" fill="#D4A870"/>
<path d="M250.741 111.27C250.405 111.27 249.733 111.27 249.396 111.27C246.371 109.253 246.371 103.538 248.388 101.521C249.396 100.513 250.069 100.513 251.413 101.521C253.766 103.874 253.766 109.253 250.741 111.27ZM250.405 105.219H250.069C250.069 105.891 250.069 106.563 250.069 107.236H250.405C250.405 106.563 250.405 105.891 250.405 105.219Z" fill="#D4A870"/>
<path d="M262.507 32.9438H262.171V32.6077C262.171 32.9438 262.507 32.9438 262.507 32.9438Z" fill="#DFBF96"/>
<path d="M230.235 44.3735C230.235 44.7097 230.235 44.7097 229.899 45.0459C229.899 44.7097 230.235 44.7097 230.235 44.3735Z" fill="#EAD5BB"/>
<path d="M237.631 37.6501C237.294 37.3139 237.294 37.3139 237.631 37.6501Z" fill="#ECDAC3"/>
<path d="M230.235 69.9219V69.5857C230.235 69.5857 230.235 69.5857 230.571 69.5857C230.235 69.5857 230.235 69.9219 230.235 69.9219Z" fill="#ECDAC3"/>
<path d="M299.821 57.4839C299.148 57.4839 298.812 57.4839 298.14 57.4839C298.14 57.4839 298.14 57.4839 298.14 57.1477C298.476 57.1477 299.148 57.1477 299.821 57.4839C299.821 57.1477 299.821 57.1477 299.821 57.4839Z" fill="#FAF6F0"/>
<path d="M299.821 57.4838C299.821 57.1476 299.821 57.1476 299.821 57.4838C299.821 57.1476 300.157 57.1476 300.157 57.4838C300.157 57.4838 299.821 57.4838 299.821 57.4838Z" fill="#EAD5BB"/>
<path d="M298.14 57.1477C298.14 57.4839 297.804 57.4839 298.14 57.1477C297.804 57.1477 297.804 57.1477 298.14 57.1477Z" fill="#E7D0B1"/>
<path d="M201.997 57.4839C201.325 57.4839 200.989 57.4839 200.317 57.4839C200.317 57.4839 200.317 57.4839 200.317 57.1477C200.989 57.1477 201.325 57.1477 201.997 57.4839C201.997 57.1477 201.997 57.1477 201.997 57.4839Z" fill="#FAF6F0"/>
<path d="M201.997 57.4838C201.997 57.1476 201.997 57.1476 201.997 57.4838C201.997 57.1476 202.334 57.1476 202.334 57.4838C202.334 57.4838 201.997 57.4838 201.997 57.4838Z" fill="#EAD5BB"/>
<path d="M250.069 7.39551C250.069 8.06783 250.069 8.74016 250.069 9.41248C250.069 9.41248 250.069 9.41248 249.733 9.41248C250.069 8.74016 250.069 8.06783 250.069 7.39551Z" fill="#FAF6F0"/>
<path d="M250.405 105.219C250.405 105.891 250.405 106.563 250.405 107.236H250.069C250.069 106.563 250.069 105.891 250.069 105.219C250.069 105.219 250.069 105.219 250.405 105.219Z" fill="#FAF6F0"/>
<path d="M256.12 53.786C254.775 56.8115 253.43 59.5008 252.086 62.5262C251.413 63.8709 251.077 64.8794 250.069 66.5602C247.716 62.1901 245.362 58.1561 243.345 53.786C243.345 53.786 243.345 53.786 243.009 53.786C243.345 59.1646 243.682 64.5432 244.018 70.258C242.673 70.258 241.665 70.258 240.32 70.258C240.32 62.5262 240.32 54.7945 240.32 47.0627C240.992 47.0627 241.328 47.0627 242.001 47.0627C242.673 47.0627 243.009 47.0627 243.682 47.0627C246.035 51.4329 248.388 55.4668 250.405 59.8369C252.422 55.4668 254.439 51.4329 256.456 47.0627C257.8 47.0627 258.809 47.0627 260.154 47.0627C260.154 54.7945 260.154 62.5262 260.154 70.258C258.809 70.258 257.8 70.258 256.456 70.258C256.12 64.5432 256.12 59.1646 256.12 53.786C256.456 53.786 256.456 53.4498 256.456 53.4498C256.12 53.4498 256.12 53.4498 256.12 53.786Z" fill="#D3A86F"/>
</svg>
